<svg height="342.192955" viewBox="-153 -46 427.39999 500.10001" width="292.232784" xmlns="http://www.w3.org/2000/svg"><path d="m85.8 8.2-6.1-.9-4-.6 4.3-1.6 6.3-44.8-3.7-2.7 4 .6 6.1.9 4 .6-4.3 1.6-6.3 44.8 3.7 2.7zm-51.2-2.2-5.9-42.2-13.8 1.9-1.6 6.2-1.3-12.5 1.8 1.6 34.8-4.9 1.3-2.1 2.2 12.4-3.3-5.5-13.9 2 5.9 42.2 5.8 1.4-5.5.8-6.1.9-5.5.8zm97.2 16.9-5.6-2.6-5-2.4 6 .4 18.2-38.6-12.6-6-4.8 4.3 5.8-11.2.6 2.4 31.8 15 2.2-1-4.9 11.5.3-6.4-12.7-6-18.4 38.6 4.1 4.3zm-162.1-9.5 5.9 5.9c5.1.6 9.9-.1 13.8-1.9 5.3-2.5 7.3-6.5 5.3-10.7-1.8-3.8-5.2-4.2-17.5-4.4-8.8-.3-13.9-2.5-16.3-7.6-3.2-6.8.4-14.4 9.3-18.6 3.5-1.7 7.4-2.5 11.3-2.4l.7-4 7.1 15-5.7-5.3c-3.5-.5-7.6.1-11.2 1.9-5.4 2.5-7.8 6.4-6 10.2 1.5 3.2 5.1 4.6 16.9 5 9.1.3 14.3 1.4 17 7 3.6 7.6.2 15.1-8.8 19.4-4.6 2.2-8.9 2.7-13.1 2.3l-.8 4.8zm217.2 48.2c-4.7-.5-9.1-2.7-12.8-6.5s-5.9-8.2-6.3-12.9c-.5-5.3 1.2-9.3 5.8-13.8l21.6-21.4-1.3-4.4 2.8 2.9 4.3 4.4 2.8 2.9-4.4-1.4-20.3 20c-4.4 4.3-5.3 5.9-5.5 9.4-.2 3.7 1.2 7.3 4.2 10.4 3 3 6.6 4.6 10.3 4.4 3.6-.1 5.1-1 9.5-5.4l20.3-20-1.3-4.4 2.8 2.9 4.3 4.4 2.8 2.9-4.4-1.4-21.4 21.4c-4.1 4-7.5 5.8-11.9 5.8-.6 0-1.2-.1-1.9-.2zm-257.4 7-33-31.7-4.4 1.4 2.8-2.9 5-5.2 44.2 8.5c.4 0 .9.2 1.3.3.5.2.7.3 1.1.5l-27.1-26.4-4.9 2 3.3-3.5 4.3-4.4 2.8-2.9-1.2 4.3 34.5 33.2-4.4 4.6-45.2-8.8c-.4-.1-1.1-.2-1.9-.5-.6-.1-1-.2-1.2-.3l28 26.9 4.7-2.4-3 3.8-3.8 4.8-2.5 3.2zm-18.4 32.2-40.9-19.2-3.7 2.7 1.7-3.7 2.6-5.6 1.7-3.7.3 4.6 40.9 19.3 3.7-2.7-1.7 3.7-2.6 5.6-1.7 3.7zm296.5.9-2.6-5.6-2.4-5 4.3 4.1 38.6-18.1-5.9-12.6-6.4.3 11.5-4.9-1.1 2.2 14.9 31.8 2.4.6-11.2 5.7 4.3-4.8-6-12.7-38.6 18.1.4 6zm-350 113.6v-37h-10.6v-4.7h15.8v41.8h-5.2zm399.6-.1c-2.2-.6-3.3-1.1-5.8-2.7l2.4-4.4c3.5 2.2 4.9 2.8 7.3 2.8 4.8 0 8.3-3.8 8.3-9.1 0-4.6-2-7.4-5.9-8.7-2.3-.8-3.8-.9-8.4-.9h-.4v-19h18.3v4.7h-13.2v10c5.8.3 8 1 10.5 3.2 2.7 2.4 4.1 5.9 4.1 10.4 0 8.3-5.4 14.3-12.8 14.3-1.5 0-3-.2-4.4-.6zm-33.6-28.3c0 2.4.6 4.3 1.6 5.6 1.1 1.3 2.6 2 4.6 2 2.2 0 5.3-.7 8.7-1.9-.1-5-.9-8.8-2.2-11.3s-3.3-3.8-5.8-3.8c-3.9 0-6.9 4.1-6.9 9.4zm-2.4 29v-4.7h.6c5.1 0 7-.5 9.7-1.8 1.5-.8 2.6-1.7 3.5-2.8 1.8-2.3 2.5-4.3 3.3-9.5-4.1 1.4-7 2-9.9 2-3 0-5.5-1.1-7.3-3.2s-2.7-5-2.7-8.5c0-4.1 1.2-7.8 3.5-10.4 2.2-2.7 5.3-4.1 8.7-4.1 4.2 0 7.5 1.7 9.8 5.1s3.5 8.2 3.5 14.4c0 7.6-1.7 13.2-5.4 17.6-1.5 1.8-3.3 3.3-5.3 4.2-2.9 1.4-5.2 1.8-10.6 1.8zm-340-2.6c1.5-2.3 2.5-3.9 3.2-5.1 2-3.5 5.1-10.2 6.8-14.4l6-15.6h-17.5v-4.7h23.5v3.2l-7.6 19.5c-1.3 3.2-2.3 5.9-3.4 8-1.6 3.4-3 5.9-6.6 11.9zm114.3-105.6c-3.2 0-10.8 1.8-10.8 18.5 0 3.1.6 6.7 1.8 11.2 2.5-11.9 7.8-21.9 15.8-29.7-1.6 0-3.4.1-5.5.1zm107.8 201.1-3.1-.8c-7.5-1.9-16.1-4.2-23.2-6.8-1.9 1.9-9 8.2-21 11.2-5.3 1.3-11.3 2-18 2-6.5 0-11.3-.7-11.3-.7 1.3-.9 13.5-8.7 26.6-12 4.7-1.2 9.5-1.8 14.4-1.8 3.7 0 6.3.4 7.5.6-12.2-4.6-19.1-7.6-26.1-11.2-2.9 2.6-9.3 7.2-19.7 9.3-3.8.8-8.1 1.2-12.7 1.2-8.4 0-15.2-1.3-15.2-1.3 1.3-.8 13.2-7.8 25.8-10.3 3.3-.7 6.6-1 9.9-1 4.1 0 7.2.5 9.5 1-3.3-1.8-6.6-3.6-9.8-5.6-1.6-.8-3.3-1.5-5.1-2-4.1-1-9.2-1.6-14.7-1.6-3.4 0-7 .2-10 .6.4 3.6-2.8 7.1-7.9 8.3-1.4.4-2.9.6-4.4.6-3.9 0-6.3-1.7-7.1-5-.6-2.4 0-4.4 1.6-6 1.4-1.4 3.6-2.5 6.5-3.2 1.1-.3 2.2-.4 3.4-.4 3.5 0 6.2 1.4 7.3 3.9 4.2-1.9 12.4-2.7 18.3-2.7h.8c-1.2-.8-2.3-1.7-3.6-2.6-3.7-2.6-7.6-5.4-10.7-8.4-1.9.9-7.1 3.1-14.3 3.1-1 0-2 0-3-.1-10.8-.9-19.7-7.1-19.8-7.1 1.3-.4 8-2.1 16.2-2.1 1.5 0 2.9.1 4.4.2 5 .4 9.6 1.6 13.9 3.7-5.5-5.6-9.5-10.2-12.8-14.7-2.4.7-4.8 1-7.3 1-2.2 0-4.5-.3-6.7-.8-8.8-2-15.2-8-15.3-8.1 2.2-.3 4.4-.5 6.6-.5 3.6 0 7.1.4 10.3 1.1 4.3 1 8.4 2.9 10.8 4.4-1.9-2.8-4.3-6.6-6.7-11.3-3.1-2.3-7.3-6.6-9.9-13.7-3.4-9-3.3-17.7-3.1-21 4.3 3.8 8.7 10 11.9 17 2.9 6.1 3.1 10.9 3.4 16.4 3.8 5.4 7.8 10.6 12.2 15.6v-.1c-.4-3.8-.9-8.6-.2-12.2-2.7-.8-4.6-3.9-4.5-7.5 0-4.3 2.7-7.8 5.8-7.8 1.6 0 3 .8 4.1 2.3s1.7 3.4 1.7 5.5c0 1.9-.5 3.7-1.5 5.1-.9 1.4-2.2 2.3-3.6 2.5.6 6.7 1.9 12.6 3.9 18 4.8 4.7 9.9 9.1 15.4 13-1.4-2.2-4.6-7.4-5.1-15.4-.7-10.8 3.5-22.1 3.5-22.2.5 1.1 4.9 11.3 5.6 21.6.6 8.9-1.7 14.8-2.6 17 5.1 4 13.7 9.3 21.4 13.4-1.2-2.1-4.7-8.4-5.4-17.8-.9-12.2 2.9-25 3-25.1.5 1.3 5.1 12.8 6 24.4.8 10.4-1.4 17.4-2.1 19.3 5.4 2.9 14.1 7.2 22.1 10.4-2.4-3.6-5.4-9.8-6.6-18.2-1.8-13 1.9-26.9 1.9-27 .7 1.3 6.6 13.3 8.3 25.6 1.4 10.1-.5 17.7-1.3 20.5 4.5 1.9 15.6 5.6 23.8 7.8-1.8-2.2-6.3-8.4-7.9-18.4-2.1-12.4 1.6-25.7 1.7-25.8.7 1.3 7.3 12.6 9.2 24.4 2 12.2-.7 20-.8 20.4 2.3.6 13.4 3.2 13.8 3.3l-.2-34.9v-4c7.2 2 17.2 3.5 23.8 3.5 1 0 1.6-.5 2.1-1.1 1.4-1.7 1.8-4.7 1.1-8.4-.2-.8-.2-1.6-.1-2.5.1-1 .5-2.1 1.1-2.8.5-.7 1.4-1.5 1.8-1.8-.6-2.4-4-5.7-5.9-6.7 2.3-.2 8.1-3.3 9.3-5.2-2.6-4.1-4-7.5-3.6-13.3 3.8-1.3 9.4-4.2 12.5-6.5-2-4.5-7.7-18.6-7.9-19.2-.2-.7-.5-1.4-.6-2.1-.8-2.9-1.7-12.7-1.8-14.6-19.6 5.4-43.4 12.1-45.9 13.1-.3 2.5-3.1 10.1-7.9 18.5-7.2 12.5-13.7 17.7-17.9 19.8l-1-1.1c10.6-12.5 18.5-29 20.7-42.9l75.4-21-54.4-39.5-28 15.1-2.9-2.9 12.6-28.2c-2-1.8-9-6.2-18.4-10.1-7.9-3.3-19.7-7.2-31.3-7.2-6.7 0-13.2 1.1-19.2 3.2-6.4 2.3-12.1 5.6-16.9 9.9-5.2 4.7-9.2 10.4-12 17-3 7.2-4.6 15.4-4.6 24.5 0 8.2 1.8 15.9 5.5 22.6 2.8 5.2 6.6 9.8 11.1 13.6 4.9 4.1 10.6 7.3 16.9 9.4 5.4 1.8 11.2 2.8 16.6 2.8 1.1 0 2.2 0 3.2-.1l.3 1.5c-3.6 1.7-7.7 2.5-12.2 2.5-4.9 0-10.1-1-15.2-2.9-5-1.9-9.7-4.6-13.8-8-8.4-7-18.5-19.7-19-40.1-4.8-11.9-7.2-21.3-7.2-28.1 0-15.9 6.6-25.4 17.7-25.4h1.8c8.9 0 12.3-.4 14.7-2.8 1.5-1.5 2.2-3.8 2.2-7.1 0-5.4 2.4-8.3 4.4-9.7s4.7-2.1 8.1-2.1c4.7 0 9.1 1.5 9.1 1.5l-2.3 6.5s-4-1-7.3-1c-1.7 0-2.9.3-3.6.8-.4.3-1.5 1.1-1.5 4.1 0 1.8-.4 3.4-.7 4.9v.2c7.6-3.1 15.8-4.8 24-4.8 8.5 0 19.3 2.2 29.6 6 8 2.9 19.4 8.1 28.7 16.4l-10.2 22.8 20.8-12 62 46.4-.6 5.3c-.1 0-11.6 3.2-25.4 7v.1c.1 2.4.9 12 1.5 14.4l.1.2c.1.5.3 1 .5 1.5l.5 1.3c2.6 6.5 3.4 8.4 8.1 19.3.9 2 0 3.9-2.5 5.6-3.8 2.5-6.6 3.9-10.1 5.6 0 1.5 1.1 3.5 1.9 5.2l.5 1c.6 1 1.4 2.6 1.4 3.4 0 3.2-3.3 6-5.3 7.3h-.1c.6.9 1.3 1.9 1.6 3.5.2 1.2 0 2.4-.6 3.5-.6 1-1.2 1.5-1.6 1.9l-.2.1c-.7.6-.6 1.7-.5 2.2.8 5.2-.1 9.3-2.5 12.4-1.6 2-3.3 3.2-6.9 3.2h-.5c-4.4 0-11.5-.8-16.7-1.6l-.1 35.6c-3.2 4.3-13 9.8-22 12.3-8.2 2.3-16.9 2.8-22.7 2.8-4.6 0-7.7-.3-7.8-.3 12.6-8.5 26.8-14.1 38-14.7zm150.7 12.4-42.8-14.5-3.4 3.1 1.3-3.8 8.9-26.4 11.2 3.4-7.1.5-6.2 18.3 15.7 5.3 4.5-13.3-3.6-3.7 13.7 4.6-5.2.8-4.5 13.3 16.6 5.6 6.2-18.3-6.5-5.8 12.4 4.6-9.1 27-1.3 3.8zm-390.8-19.1 3.2 8.8c2.2 6.1 4.7 9.1 8.8 11 2.5 1.1 5.7 1.7 8.9 1.7 2.7 0 5.4-.4 7.7-1.3 5-1.8 8.9-5.4 11-9.9 2.1-4.6 2.2-9.9.4-15l-3.2-8.8zm11.8 26.2c-6.4-2.4-10.1-6.6-13.1-14.7l-5.7-15.4-1.7-4.5 3.7 3.8 42.5-15.7.4-5.3 1.7 4.5 5.7 15.5c2.4 6.6 2.3 13.4-.3 19.2s-7.7 10.3-14.1 12.7c-3 1.1-6.1 1.6-9.3 1.6-3.5 0-6.8-.6-9.8-1.7zm319.6 45.1c-11.6-8.6-14-23.8-5.6-35.2 3.4-4.5 7.8-7.8 12.8-9.2l9.4 7-7-2.1c-3.7 1.2-7.8 3.9-10.8 7.8-6.3 8.4-4.3 19.4 4.8 26.1 10 7.4 21.1 6.2 28-3.1 2.3-3.1 4-6.6 4.9-10.3l-4.8-6.9 10 7.4c-1.4 5.7-2.9 9.7-5.7 13.5-5.2 7-12.5 10.6-20 10.6-5.3.1-10.9-1.8-16-5.6zm-307.3-9.8-2.5-3.2 4.2 1.8 35.5-28-.8-4.5 2.5 3.2 17.3 21.9-9 7.6 3.4-6.2-12-15.2-13 10.2 8.7 11 5-1-11.3 8.9 2.2-4.8-8.7-11-13.6 10.9 12 15.2 8.4-2.3-10.6 7.9zm71.7 64.1-5.4-3-3.5-2 4.5.1 20.5-40.1-2.6-3.8 3.6 1.8 24.8 12.7-5 10.6.6-7.1-17.2-8.8-7.8 15.2 14 7.2 3.8-2.7-1.9 3.7-2.4 4.6-2.3 4.5v-5.7l-13.6-7-9.2 17.9 2.4 3.9zm192.7 3.2-23.3-38.4-4.6.2 3.5-2.1 6.2-3.8 40.6 19.6c.3.1.8.4 1.2.7s.6.5 1 .8l-19.7-32.4-5.2.6 4.1-2.5 5.3-3.2 3.5-2.1-2.3 4 24.8 40.9-5.5 3.3-41.6-20.2c-.4-.2-1-.5-1.7-1-.5-.3-.9-.4-1.1-.7l20.3 33.4 5.3-.2-13.4 6.8zm-65.1.6 15.9-2.9-12.1-21zm-12.8 22.4 3.5-2.2 8.3-49.2-4.5-1.1 4.7-.9v.2-.2l6.4-1.2 26.1 44.9 3.9.9-12.6 3.4 2.6-2.4-6.9-12.2-19.8 3.6-2.2 13.7 3.8 1.6zm-49-30.3 7.9 1.2c.8.1 1.7.2 2.4.2 5 0 8-2.8 8.8-8.3.5-3.1-.1-5.5-1.6-7.2-1.3-1.4-2.5-1.8-6.9-2.5l-7.9-1.2zm25.3 30.5-5-.8c-3.4-.5-5.6-2.4-7.1-6l-7.3-17.7-6.5-1-2.9 19 3.5 2.9-14-2.9 4.4-1.3 6.8-44.6-3.7-2.8 4 .6 14.9 2.3c5.9.9 8.6 2.2 11 5.4 2.1 2.7 3 6.5 2.4 10.2-1.1 7.5-7.5 12.3-16.2 12.3h-.5l4.4 2.7 7.9 18.3z"/></svg>