<?xml version="1.0" encoding="utf-8"?>
<!-- Generator: Adobe Illustrator 25.2.1, SVG Export Plug-In . SVG Version: 6.00 Build 0)  -->
<svg version="1.1" id="LOGO" xmlns="http://www.w3.org/2000/svg" xmlns:xlink="http://www.w3.org/1999/xlink" x="0px" y="0px"
	 viewBox="0 0 425.2 337.32" style="enable-background:new 0 0 425.2 337.32;" xml:space="preserve">
<style type="text/css">
	.st0{fill:none;}
	.st1{fill:#3D3F3B;}
	.st2{fill:#FF0000;}
</style>
<rect x="21.6" y="17.15" class="st0" width="381.81" height="303.02"/>
<g>
	<path class="st1" d="M62.53,90.91c-0.4-0.91-0.83-1.81-1.28-2.68c-0.23-0.44-0.47-0.88-0.72-1.31c-0.22-0.37-0.46-0.78-0.76-1.24
		c-0.22-0.44-0.45-0.97-0.73-1.61c-0.24-0.57-0.49-1.17-0.73-1.79c-0.47-1.21-0.9-2.44-1.28-3.67c-0.8-2.58-1.41-5.12-1.78-7.56
		c-0.42-2.71-0.58-5.31-0.46-7.73c0.13-2.73,0.62-5.28,1.44-7.59c0.1-0.29-0.04-0.61-0.33-0.72c-0.29-0.11-0.61,0.02-0.73,0.3
		c-1.02,2.36-1.7,5.01-2.03,7.87c-0.29,2.53-0.31,5.26-0.05,8.13c0.23,2.57,0.68,5.26,1.35,8.01c0.32,1.31,0.68,2.63,1.09,3.92
		c0.21,0.67,0.43,1.32,0.64,1.94c0.21,0.6,0.45,1.25,0.75,1.96c0.01,0.02,0.02,0.04,0.03,0.06l0.06,0.11
		c0.18,0.32,0.4,0.73,0.61,1.15c0.19,0.4,0.39,0.81,0.57,1.23c0.36,0.82,0.7,1.67,1.01,2.53c0.61,1.69,1.12,3.45,1.51,5.23
		c0.79,3.6,1.09,7.21,0.89,10.72c-0.2,3.56-0.92,7.05-2.14,10.38c-0.3,0.8-0.63,1.63-1,2.46c-0.43,0.98-0.8,1.9-1.13,2.8
		c-0.67,1.82-1.28,3.73-1.8,5.69c-0.94,3.49-1.69,7.26-2.31,11.53c-0.53,3.62-0.92,7.41-1.22,11.59c-0.26,3.74-0.41,7.64-0.46,11.6
		c-0.02,1.94-0.02,3.89,0,5.81c0.01,0.96,0.03,1.94,0.06,2.91l0.05,1.46c0.02,0.5,0.04,0.97,0.07,1.5c0.01,0.15,0.08,0.3,0.2,0.4
		c0.1,0.09,0.24,0.14,0.37,0.14c0.02,0,0.03,0,0.05,0l8-0.71c0.15-0.01,0.29-0.09,0.39-0.21c0.1-0.12,0.14-0.27,0.13-0.42
		l-0.15-1.33l-0.14-1.38c-0.09-0.92-0.17-1.86-0.24-2.77c-0.15-1.83-0.27-3.7-0.37-5.56c-0.2-3.8-0.3-7.55-0.28-11.15
		c0.02-4,0.16-7.63,0.43-11.1c0.32-4.04,0.79-7.6,1.45-10.89c0.36-1.8,0.79-3.57,1.29-5.25c0.24-0.81,0.51-1.64,0.84-2.53
		c0.36-0.97,0.68-1.94,0.96-2.89c1.14-3.89,1.7-7.92,1.66-11.97c-0.03-3.93-0.62-7.9-1.75-11.81
		C63.99,94.59,63.31,92.71,62.53,90.91z"/>
	<path class="st1" d="M72.14,35.86c-1.2-1.7-2.56-2.95-4.14-3.84c-1.02-0.57-2.03-0.9-3.09-1.01c-0.44-0.04-0.76-0.04-1.06-0.04
		c-0.12,0-0.24,0-0.37,0l-0.01,0l-0.32,0.01c-0.33,0-0.66,0.01-0.99,0.03c-0.92,0.04-1.82,0.14-2.67,0.29
		c-1,0.18-1.89,0.4-2.71,0.68c-1.95,0.67-3.71,1.71-5.09,3.03c-1.39,1.31-2.55,3.05-3.34,5.04c-0.65,1.64-1.07,3.45-1.28,5.54
		c-0.09,1.06-0.13,1.92-0.13,2.7l0,0.62c0,0.06,0,0.12,0,0.18c0,0.09,0,0.19-0.01,0.3c-0.01,0.27-0.04,0.56-0.08,0.9
		c-0.29,2.3-1.33,4.51-3.08,6.55c-0.82,0.96-1.77,1.86-2.85,2.7c-0.52,0.41-1.07,0.8-1.63,1.15c-0.27,0.17-0.55,0.34-0.83,0.51
		c-0.08,0.05-0.16,0.09-0.24,0.14l-0.02-0.03l-0.98,0.59l0.5,0.95l0.01-0.01l3.86,7.12l0.51-0.3l0.72-0.46
		c0.21-0.14,0.4-0.28,0.6-0.42c0.39-0.28,0.77-0.57,1.13-0.86c0.73-0.58,1.43-1.2,2.1-1.84c1.4-1.34,2.63-2.78,3.66-4.28
		c1.15-1.67,2.05-3.41,2.67-5.17c0.68-1.91,1.04-3.88,1.09-5.85c0.01-0.54,0-1.03-0.03-1.47c-0.01-0.18-0.02-0.36-0.04-0.54
		l-0.07-0.77c-0.08-0.73-0.11-1.45-0.12-2.06c0-1.45,0.15-2.74,0.45-3.83c0.35-1.23,0.88-2.27,1.58-3.08
		c0.73-0.86,1.7-1.58,2.87-2.12c1.15-0.53,2.47-0.91,3.93-1.13c0.24-0.04,0.49-0.07,0.76-0.1l0.63-0.07
		c0.25-0.02,0.5-0.05,0.62-0.05c0.43-0.01,0.95,0.1,1.47,0.32c1.04,0.43,2.14,1.25,3.07,2.31c0.91,1.04,1.66,2.27,2.17,3.56
		c0.53,1.32,0.82,2.72,0.86,4.17c0.04,1.44-0.16,2.89-0.61,4.32c-0.82,2.61-2.53,5.24-4.94,7.61l0.75,0.85
		c1.4-1.11,2.56-2.23,3.54-3.42c1.13-1.35,2.03-2.79,2.68-4.27c0.71-1.61,1.14-3.29,1.27-5.02c0.14-1.77-0.03-3.54-0.5-5.25
		C73.95,38.99,73.18,37.35,72.14,35.86z"/>
	<path class="st1" d="M118.79,30.47c-0.19-0.24-0.53-0.29-0.78-0.12L85.06,53.82c-0.13,0.09-0.21,0.23-0.23,0.38
		c-0.02,0.15,0.02,0.31,0.11,0.43l1.97,2.54c0.09,0.12,0.24,0.2,0.39,0.22c0.02,0,0.04,0,0.06,0c0.13,0,0.26-0.05,0.37-0.13
		l30.99-26C118.94,31.06,118.98,30.72,118.79,30.47z"/>
</g>
<g>
	<path class="st1" d="M137.21,109.62c-2.91,1.73-5.63,3.61-8.08,5.6c-1.38,1.1-2.65,2.28-3.73,3.3c-1.13,1.13-2.33,2.35-3.4,3.64
		c-0.39,0.44-0.75,0.9-1.1,1.35c-0.16,0.2-0.32,0.4-0.48,0.61c-0.01,0.01-0.01,0.02-0.02,0.02c-0.14,0.19-0.28,0.38-0.42,0.57
		c-0.35,0.48-0.71,0.97-1.04,1.47c-0.43,0.62-0.82,1.26-1.2,1.88l-0.41,0.7c-0.33,0.58-0.68,1.18-0.98,1.79
		c-0.34,0.64-0.65,1.3-0.94,1.93l-0.18,0.38l-0.1,0.24c-0.29,0.69-0.6,1.4-0.86,2.13c-0.61,1.65-1.12,3.31-1.51,4.92
		c-0.8,3.3-1.23,6.75-1.29,10.24c-0.05,3.35,0.23,6.81,0.83,10.3c0.58,3.32,1.45,6.68,2.6,9.99c0.56,1.61,1.19,3.24,1.89,4.83
		c0.36,0.83,0.72,1.61,1.1,2.38c0.18,0.37,0.38,0.75,0.61,1.2l0.32,0.6l0.21,0.38c0.05,0.08,0.09,0.16,0.17,0.29
		c0.08,0.13,0.21,0.22,0.36,0.26c0.04,0.01,0.08,0.01,0.12,0.01c0.11,0,0.22-0.03,0.31-0.09l6.66-4.4c0.14-0.1,0.24-0.25,0.25-0.42
		c0.01-0.16-0.04-0.31-0.14-0.42c-0.01-0.02-0.03-0.05-0.05-0.08l-0.47-0.69c-0.2-0.3-0.4-0.61-0.59-0.92
		c-0.38-0.6-0.76-1.25-1.14-1.92c-0.75-1.32-1.45-2.68-2.07-4.03c-1.31-2.8-2.38-5.67-3.18-8.53c-0.85-2.99-1.4-6-1.66-8.93
		c-0.26-3.06-0.19-6.11,0.2-9.08c0.2-1.45,0.5-2.96,0.89-4.49c0.16-0.64,0.36-1.28,0.55-1.91l0.23-0.7c0.2-0.58,0.41-1.18,0.65-1.77
		c0.21-0.56,0.46-1.12,0.7-1.66l0.2-0.45l0.15-0.32c0.28-0.58,0.57-1.19,0.9-1.78c0.24-0.48,0.51-0.94,0.8-1.42
		c0.12-0.2,0.23-0.4,0.35-0.6c0.14-0.21,0.27-0.42,0.4-0.64c0.28-0.44,0.56-0.9,0.88-1.34c0.82-1.24,1.73-2.4,2.84-3.75
		c0.92-1.07,2.03-2.33,3.23-3.5c2.17-2.17,4.62-4.27,7.28-6.24c0.24-0.18,0.3-0.52,0.13-0.77
		C137.8,109.55,137.47,109.47,137.21,109.62z"/>
	<path class="st1" d="M149.37,103.09c-0.19-1.4-0.78-2.8-1.65-3.93c-0.87-1.16-1.91-1.9-2.72-2.43l-0.17-0.1
		c-0.17-0.11-0.35-0.21-0.52-0.31l-1.04-0.52l-1.06-0.44c-1.03-0.41-2.01-0.68-3-0.84c-1.17-0.2-2.3-0.21-3.34-0.03
		c-1.16,0.18-2.29,0.63-3.25,1.29c-0.9,0.62-1.67,1.42-2.28,2.4c-0.53,0.84-0.94,1.78-1.22,2.78c-0.51,1.85-0.61,3.75-0.3,5.65
		c0.18,1.04,0.47,1.92,0.87,2.7c0.24,0.46,0.53,0.87,0.86,1.21c0.37,0.39,0.82,0.69,1.3,0.87l0.49-1.02
		c-0.51-0.31-0.89-0.87-1.13-1.67c-0.19-0.67-0.28-1.4-0.26-2.25c0.05-1.54,0.42-3.06,1.1-4.38c0.67-1.33,1.62-2.32,2.63-2.73
		c0.94-0.4,2.05-0.35,3.29,0.12c0.58,0.22,1.18,0.53,1.77,0.92l0.67,0.45l0.59,0.46c0.06,0.06,0.12,0.11,0.18,0.17
		c0.05,0.05,0.11,0.1,0.15,0.14c0.57,0.56,0.78,0.93,0.87,1.15c0.15,0.35,0.14,0.59,0.11,0.79c-0.04,0.26-0.17,0.59-0.38,0.96
		c-0.23,0.4-0.56,0.84-0.95,1.28c-0.41,0.46-0.88,0.9-1.39,1.31c-0.24,0.2-0.51,0.4-0.79,0.61c-0.13,0.1-0.4,0.28-0.4,0.28
		l-0.18,0.12l-0.71,0.38l5.6,7.35l0.45-0.39c0.14-0.12,0.22-0.2,0.31-0.28l0.36-0.36c0.19-0.19,0.37-0.38,0.55-0.58
		c0.37-0.41,0.71-0.79,1.02-1.18c0.7-0.86,1.3-1.73,1.84-2.65c0.64-1.11,1.1-2.17,1.42-3.24
		C149.43,105.74,149.55,104.37,149.37,103.09z"/>
	<path class="st1" d="M115.6,116.01c1.25-0.27,2.64-0.13,3.91,0.39c0.28,0.12,0.61-0.02,0.73-0.3l0.17-0.4
		c0.12-0.28,0-0.61-0.28-0.74c-1.54-0.7-3.26-0.94-4.85-0.68c-1.7,0.27-3.26,1.12-4.4,2.39c-1.25,1.39-1.91,3.11-2.3,4.29
		c-0.26,0.78-0.47,1.56-0.63,2.22c-0.17,0.62-0.31,1.25-0.45,1.86l-0.08,0.37c-0.46,2.1-0.82,4.23-1.17,6.29
		c-0.15,0.86-0.29,1.72-0.45,2.57c-0.46,2.57-1.05,5.58-2.03,8.53c-0.06,0.21-0.14,0.41-0.22,0.63c-0.05,0.13-0.09,0.25-0.13,0.37
		l-0.18,0.5c-0.06,0.15-0.12,0.3-0.19,0.45c-0.26,0.59-0.56,1.04-0.84,1.26c-0.26,0.21-0.43,0.2-0.56,0.16
		c-0.2-0.06-0.49-0.3-0.67-0.65c-0.09-0.17-0.15-0.34-0.17-0.51c-0.03-0.22-0.04-0.45-0.02-0.7c0.04-0.47,0.17-1.02,0.42-1.72
		c0.19-0.52,0.42-1.1,0.64-1.65l0.99-2.46c0.51-1.29,1.08-2.83,1.49-4.49c0.1-0.39,0.18-0.78,0.27-1.21
		c0.09-0.53,0.12-0.98,0.14-1.37c0.04-0.74,0.03-1.49-0.01-2.43c-0.08-1.65-0.23-3.19-0.49-4.71c-0.13-0.76-0.29-1.58-0.56-2.46
		c-0.08-0.27-0.16-0.48-0.25-0.7c-0.11-0.25-0.23-0.53-0.45-0.87c-0.13-0.18-0.27-0.39-0.54-0.63c-0.12-0.1-0.3-0.25-0.58-0.39
		c-0.31-0.16-0.66-0.25-1-0.27c-0.36-0.02-0.76,0.05-1.09,0.19c-0.24,0.1-0.46,0.24-0.67,0.41c-0.32,0.27-0.47,0.49-0.59,0.66
		l-0.11,0.15c-0.03,0.04-0.05,0.09-0.07,0.14l-0.09,0.27c-0.68,2.03-1.64,3.87-2.86,5.46c-0.64,0.84-1.32,1.58-2.02,2.2
		c-0.39,0.34-0.76,0.63-1.11,0.85c-0.16,0.11-0.34,0.21-0.52,0.31c-0.16,0.08-0.3,0.14-0.35,0.15l-0.09,0.02
		c-0.03,0.01-0.07,0.02-0.1,0.04l-0.16,0.07c-0.16,0.08-0.32,0.15-0.5,0.26c-0.17,0.1-0.38,0.22-0.65,0.43l-0.08,0.07
		c-0.01,0.01-0.01,0.01-0.02,0.02l-0.2,0.18c-0.01,0.01-0.02,0.02-0.02,0.02l-0.1,0.11c-0.12,0.12-0.24,0.3-0.27,0.35
		c-0.04,0.06-0.1,0.17-0.15,0.26l-0.06,0.12c-0.02,0.05-0.05,0.11-0.07,0.18c-0.04,0.1-0.08,0.21-0.11,0.36
		c-0.03,0.14-0.05,0.28-0.07,0.43c-0.02,0.32,0.01,0.63,0.09,0.93c0.13,0.46,0.36,0.85,0.71,1.22c0.41,0.41,0.72,0.57,0.95,0.68
		l0.07,0.04c0.26,0.12,0.47,0.2,0.65,0.26c0.39,0.13,0.72,0.21,1,0.27c0.66,0.14,1.26,0.22,1.72,0.28c0.6,0.07,1.11,0.12,1.66,0.15
		c0.15,0.01,0.3-0.04,0.41-0.14c0.11-0.1,0.18-0.25,0.19-0.4l0.15-3.8c0.08-0.06,0.16-0.12,0.26-0.22c0.92-0.88,1.76-1.85,2.55-2.98
		c0.46-0.66,0.91-1.41,1.28-2.1c0.11,0.77,0.19,1.57,0.26,2.37c0.06,0.79,0.08,1.46,0.07,2.05c-0.01,0.35-0.03,0.65-0.06,0.86
		c-0.05,0.36-0.11,0.69-0.18,1c-0.3,1.47-0.79,2.94-1.17,4.06l-0.9,2.52c-0.2,0.56-0.41,1.15-0.61,1.78
		c-0.21,0.69-0.46,1.62-0.5,2.65c-0.02,0.53,0.02,1.04,0.12,1.52c0.11,0.54,0.32,1.09,0.62,1.58c0.3,0.49,0.66,0.92,1.09,1.28
		c0.49,0.41,1.03,0.69,1.61,0.85c0.31,0.09,0.65,0.13,0.98,0.13c0.34,0,0.69-0.05,1-0.14c0.74-0.2,1.29-0.61,1.62-0.92
		c0.81-0.76,1.24-1.63,1.58-2.45c0.08-0.2,0.15-0.4,0.23-0.61l0.18-0.56c0.04-0.13,0.08-0.25,0.12-0.38
		c0.08-0.24,0.16-0.49,0.22-0.73c0.9-3.15,1.39-6.31,1.76-9c0.12-0.87,0.23-1.75,0.35-2.62c0.27-2.05,0.54-4.17,0.9-6.22l0.07-0.37
		c0.11-0.59,0.22-1.2,0.35-1.8c0.13-0.63,0.3-1.38,0.51-2.11c0.21-0.75,0.45-1.39,0.7-1.96c0.32-0.69,0.66-1.24,1.03-1.69
		C113.15,116.96,114.31,116.28,115.6,116.01z"/>
</g>
<g>
	<path class="st2" d="M202.55,118.57c-0.02-0.16-0.03-0.32-0.05-0.5c-0.04-0.37-0.1-0.73-0.16-1.08c-0.03-0.18-0.06-0.35-0.08-0.53
		c0-0.01,0-0.02-0.01-0.03l-0.33-1.55c0-0.01,0-0.02-0.01-0.03l-0.4-1.54c-0.27-0.91-0.57-1.89-0.92-2.97
		c-1.45-4.47-2.49-8.17-3.29-11.63c-0.54-2.35-0.87-4.17-1.07-5.9c-0.11-1-0.2-1.98-0.19-2.96c0-1.16,0.11-2.06,0.33-2.86
		c0.08-0.29-0.08-0.6-0.37-0.69c-0.29-0.09-0.6,0.06-0.7,0.34c-0.32,0.88-0.52,1.88-0.63,3.14c-0.09,1.04-0.08,2.08-0.05,3.14
		c0.07,1.81,0.25,3.71,0.61,6.17c0.52,3.58,1.27,7.42,2.37,12.08c0.25,1.05,0.46,2.01,0.65,2.91l0.25,1.44l0.18,1.42
		c0.2,2.13,0.1,3.88-0.3,5.35c-0.42,1.55-1.26,2.83-2.58,3.92c-1.18,0.99-2.69,1.8-4.28,2.66l-0.5,0.27
		c-1.95,1.06-3.85,2.15-5.58,3.7l-0.33,0.29c-0.01,0.01-0.02,0.01-0.02,0.02l-0.32,0.32c-0.06,0.07-0.13,0.13-0.19,0.19
		c-0.15,0.15-0.3,0.3-0.44,0.47l-0.59,0.68c-0.01,0.01-0.02,0.02-0.02,0.03c-0.21,0.27-0.45,0.6-0.64,0.92
		c-0.36,0.6-0.67,1.24-0.9,1.9c-0.21,0.55-0.38,1.14-0.54,1.86c-0.55,2.56-0.54,4.92-0.47,6.9c0.09,1.97,0.31,4.07,0.67,6.45
		c0.59,3.76,1.45,7.67,2.7,12.32c0.53,1.95,1.12,3.97,1.75,6c0.3,0.96,0.62,1.96,0.96,2.98l0.5,1.49c0.17,0.5,0.34,0.98,0.53,1.52
		c0.05,0.14,0.16,0.26,0.3,0.32c0.07,0.03,0.15,0.05,0.23,0.05c0.07,0,0.15-0.01,0.21-0.04l7.39-3.03c0.14-0.06,0.26-0.17,0.31-0.32
		c0.06-0.14,0.05-0.3-0.01-0.44c-0.19-0.4-0.39-0.87-0.58-1.31l-0.59-1.36c-0.4-0.93-0.78-1.86-1.14-2.75
		c-0.76-1.88-1.47-3.75-2.12-5.55c-1.51-4.19-2.64-7.88-3.46-11.26c-0.5-2.08-0.85-3.92-1.06-5.61c-0.26-2.09-0.3-3.81-0.11-5.25
		c0.06-0.45,0.13-0.8,0.22-1.11c0.08-0.31,0.19-0.6,0.33-0.9c0.03-0.08,0.08-0.15,0.13-0.24l0.42-0.59
		c0.06-0.08,0.13-0.17,0.21-0.26c0.06-0.06,0.11-0.13,0.15-0.18l0.2-0.23l0.22-0.23c1.08-1.16,2.45-2.14,4.32-3.35
		c0.23-0.15,0.47-0.3,0.7-0.46c1.53-0.99,3.1-2.02,4.57-3.45c0.92-0.91,1.68-1.89,2.25-2.93c0.6-1.11,1.03-2.31,1.23-3.47
		c0.05-0.22,0.08-0.42,0.1-0.61c0.01-0.09,0.02-0.18,0.04-0.28c0.04-0.28,0.08-0.59,0.08-0.89l0.04-0.84c0-0.01,0-0.03,0-0.04
		l-0.02-0.81C202.63,119.35,202.59,118.95,202.55,118.57z"/>
	<path class="st2" d="M190.22,87.19c0.4,0.47,0.89,0.87,1.47,1.19c0.17,0.09,0.32,0.18,0.44,0.25c0.66,0.37,0.91,0.49,1.86,0.54
		l0.13-1.12c-0.58-0.11-0.69-0.21-1-0.49c-0.15-0.13-0.33-0.3-0.61-0.5c-0.69-0.49-1.17-1.24-1.36-2.09
		c-0.18-0.77-0.17-1.67,0.02-2.73c0.15-0.85,0.4-1.76,0.8-2.86c0.18-0.51,0.38-1.02,0.55-1.44l0.15-0.37l0.14-0.32
		c0.07-0.16,0.16-0.34,0.29-0.55c0.41-0.7,0.97-1.27,1.61-1.66c0.61-0.37,1.33-0.58,1.94-0.56c0.14,0,0.26,0.02,0.36,0.04
		c0.1,0.02,0.2,0.06,0.28,0.1c0.2,0.1,0.36,0.23,0.51,0.41c0.31,0.35,0.55,0.94,0.69,1.65c0.14,0.7,0.18,1.53,0.13,2.46
		c-0.04,0.84-0.16,1.76-0.34,2.74c-0.1,0.51-0.2,0.97-0.3,1.42l-0.17,0.84c-0.05,0.22-0.08,0.44-0.12,0.66l-0.04,0.25
		c-0.44,2.73-0.43,5.24,0.03,7.65c0.28,1.41,0.71,2.75,1.28,3.98c0.32,0.69,0.68,1.33,1.09,1.95c0.25,0.37,0.47,0.67,0.71,0.97
		c0.15,0.19,0.29,0.35,0.43,0.5l0.02,0.02c0.07,0.08,0.15,0.16,0.24,0.25l0.27,0.25c0.03,0.03,0.06,0.05,0.15,0.12l0.45,0.36
		l5.62-7.21l-0.47-0.34c-0.05-0.04-0.1-0.07-0.15-0.1l-0.04-0.03c-0.08-0.06-0.14-0.11-0.2-0.16c-0.21-0.21-0.42-0.46-0.61-0.73
		c-0.39-0.55-0.74-1.2-1.02-1.92c-0.54-1.4-0.83-3.12-0.84-4.96c0-0.08,0-0.15,0-0.23c0-0.15,0-0.3,0.01-0.46l0.01-0.39
		c0-0.1,0.01-0.2,0.01-0.33c0.04-0.55,0.06-1.14,0.07-1.75c0.02-1.3-0.03-2.48-0.17-3.61c-0.18-1.46-0.46-2.66-0.9-3.8
		c-0.28-0.72-0.61-1.36-0.99-1.93c-0.47-0.7-1.01-1.29-1.62-1.76c-0.67-0.52-1.45-0.92-2.28-1.13c-0.42-0.11-0.85-0.17-1.28-0.19
		c-0.4-0.01-0.79,0.01-1.21,0.08c-1.42,0.23-2.71,0.85-3.85,1.84c-1.01,0.88-1.8,2.02-2.29,3.3c-0.13,0.34-0.22,0.64-0.3,0.92
		l-0.2,0.8c-0.12,0.47-0.25,1.02-0.37,1.6c-0.27,1.29-0.42,2.36-0.46,3.37c-0.05,1.39,0.1,2.55,0.48,3.56
		C189.5,86.17,189.82,86.73,190.22,87.19z"/>
	<path class="st2" d="M168.15,157.74l-0.49-0.2c-0.22-0.1-0.45-0.2-0.67-0.3c-0.44-0.21-0.88-0.45-1.31-0.7
		c-0.88-0.52-1.67-1.09-2.34-1.69c-1.46-1.3-2.38-2.79-2.66-4.3c-0.08-0.41-0.11-0.82-0.11-1.23c0-0.4,0.04-0.77,0.13-1.38
		c0.16-1.1,0.36-2.15,0.61-3.11c0.28-1.07,0.6-2.04,0.97-2.85l0.12-0.25c0.14-0.3,0.27-0.58,0.42-0.83c0.01,0,0.01,0,0.02,0
		c0.54,0.04,0.98-0.05,1.26-0.13c0.32-0.09,0.62-0.22,0.9-0.38c0.43-0.24,0.8-0.53,1.2-0.92c0.28-0.28,0.56-0.6,0.83-0.96
		c0.81-1.1,1.44-2.31,2.03-3.94c0.41-1.19,0.86-2.6,0.98-4.28c0.02-0.49,0.01-0.92-0.05-1.33c-0.06-0.42-0.17-0.98-0.51-1.58
		c-0.07-0.13-0.15-0.23-0.24-0.31c0.14-0.22,0.26-0.45,0.36-0.77c0.35-1.18,0.36-2.26,0.33-3.16c-0.01-0.25-0.03-0.5-0.05-0.75
		l-0.04-0.37l-0.05-0.35c-0.04-0.28-0.06-0.61-0.04-0.93c0.01-0.19,0.03-0.37,0.06-0.55l16.95,6.76c0.07,0.03,0.14,0.04,0.21,0.04
		c0.08,0,0.16-0.02,0.23-0.05c0.14-0.06,0.25-0.18,0.3-0.33l1.06-3.01c0.05-0.15,0.04-0.31-0.03-0.44
		c-0.07-0.14-0.19-0.24-0.34-0.29l-16.94-5.15c0.54-0.44,1.22-0.79,2.02-1.03c1.27-0.39,2.78-0.55,4.63-0.5l1.16,0.03l0.3-1.08
		c0.36-1.29,0.82-2.62,1.26-3.88c0.49-1.38,1-2.75,1.43-3.9l2.94-7.83c0.43-1.15,0.93-2.53,1.42-3.96l0.01-0.03
		c0.44-1.31,0.9-2.66,1.23-4.07c0.09-0.4,0.16-0.77,0.17-1.2c0-0.11,0-0.25-0.02-0.42l-0.01-0.07c-0.03-0.14-0.08-0.4-0.33-0.67
		l-0.05-0.04c-0.1-0.09-0.16-0.13-0.23-0.16l-0.15-0.09c-0.09-0.05-0.18-0.1-0.27-0.14c-0.38-0.18-0.8-0.36-1.31-0.4
		c-0.33-0.03-0.65,0.02-0.92,0.14c-0.28,0.12-0.54,0.31-0.75,0.57c-0.3,0.38-0.46,0.76-0.6,1.1l-0.11,0.29
		c-0.09,0.24-0.18,0.46-0.28,0.67c-0.13,0.28-0.27,0.48-0.41,0.62c-0.13,0.13-0.3,0.22-0.51,0.26l-1.65,0.35l1.29,1.09
		c0.2,0.17,0.39,0.41,0.53,0.67c0.14,0.26,0.22,0.52,0.23,0.74c0.01,0.18-0.06,0.35-0.18,0.47c-0.14,0.15-0.37,0.28-0.68,0.39
		l-0.53,0.19l0.54,1.55l0.54-0.19c0.56-0.2,0.98-0.45,1.31-0.79c0.43-0.43,0.67-1.05,0.65-1.66c-0.01-0.49-0.15-0.98-0.43-1.49
		c-0.04-0.07-0.08-0.15-0.13-0.22c0.05-0.04,0.11-0.09,0.16-0.14c0.3-0.28,0.55-0.62,0.79-1.09c0.14-0.27,0.24-0.53,0.35-0.78
		l0.1-0.23c0.11-0.25,0.23-0.53,0.36-0.68c0.06-0.07,0.08-0.08,0.18-0.07c0.16,0.02,0.38,0.1,0.66,0.24
		c0.01,0.01,0.03,0.02,0.04,0.02c-0.03,0.24-0.1,0.51-0.16,0.74c-0.36,1.3-0.86,2.6-1.34,3.85c-0.55,1.4-1.12,2.79-1.56,3.85
		l-3.26,7.7c-0.48,1.14-1.05,2.5-1.61,3.88c-0.4,1-0.73,1.86-1.1,2.93c-1.72-0.05-3.17,0.1-4.55,0.45c-1.07,0.28-2.03,0.7-2.83,1.24
		c-0.71,0.47-1.33,1.06-1.83,1.73l-15.79-4.8c-0.29-0.09-0.6,0.07-0.7,0.35c-0.1,0.29,0.04,0.6,0.32,0.71l15.03,5.99
		c-0.15,0.5-0.26,1.01-0.31,1.55c-0.04,0.45-0.05,0.86-0.03,1.28l-0.03,0l0.08,0.54l0.03,0.38c0.01,0.18,0.01,0.37,0.01,0.55
		c0,0.79-0.09,1.46-0.26,1.95c-0.09,0.25-0.19,0.41-0.25,0.47c-0.06,0.06-0.06,0.06-0.13,0.07l-0.51,0.11l0.4,2.7l-0.04,0.02
		l0.1,0.41c0.07,0.27,0.26,0.37,0.43,0.41c0,0.01,0,0.03,0,0.05c0.01,0.16,0.01,0.36-0.01,0.57c-0.09,0.83-0.39,1.88-0.89,3.12
		c-0.47,1.15-0.99,2.09-1.56,2.78c-0.15,0.19-0.3,0.34-0.44,0.47c-0.03,0.03-0.06,0.05-0.1,0.08c-0.22-0.21-0.44-0.21-0.59-0.16
		c-0.17,0.02-0.76,0.05-1.26,0.06l-0.17,0.01l-0.14,0.09c-0.45,0.31-0.76,0.62-1.02,0.9c-0.1,0.1-0.19,0.21-0.28,0.31l-0.44,0.56
		c-0.36,0.51-0.7,1.06-1.07,1.76c-0.54,1.06-1,2.22-1.42,3.56c-0.35,1.13-0.64,2.3-0.88,3.58c-0.16,0.75-0.25,1.44-0.28,2.03
		c-0.04,0.73-0.01,1.46,0.09,2.19c0.19,1.4,0.68,2.83,1.41,4.14c0.66,1.17,1.52,2.27,2.55,3.29c0.91,0.9,1.93,1.71,3.1,2.48
		c0.37,0.24,0.69,0.41,1.03,0.6c0.01,0.01,0.02,0.01,0.04,0.02l-4.27,12.95l6.2,1.88l5.11-18.42l-2.63-0.5
		C168.19,157.76,168.17,157.75,168.15,157.74z"/>
</g>
<g>
	<path class="st1" d="M274.18,132.54c-0.04-2.12-0.2-4.28-0.48-6.42c-0.28-2.01-0.68-4.06-1.24-6.28c-0.46-1.81-1.07-3.74-1.93-6.07
		c-0.08-0.21-0.17-0.42-0.25-0.64c-0.3-0.75-0.61-1.53-0.95-2.28c-0.07-0.16-0.15-0.33-0.22-0.5c-0.14-0.31-0.27-0.63-0.43-0.94
		l-0.68-1.41c-1.75-3.52-3.89-7.01-6.54-10.66c-1.78-2.44-3.77-4.88-5.91-7.27l4.27,2.56c0.09,0.05,0.19,0.08,0.29,0.08
		c0.05,0,0.1-0.01,0.15-0.02c0.15-0.04,0.27-0.14,0.35-0.28l0.42-0.91c0.11-0.26,0.21-0.52,0.31-0.79c0.19-0.52,0.36-1.04,0.52-1.59
		c0.34-1.18,0.56-2.28,0.68-3.35c0.14-1.3,0.13-2.5-0.02-3.66c-0.18-1.38-0.58-2.66-1.18-3.8c-0.62-1.18-1.5-2.26-2.54-3.12
		c-0.94-0.77-2-1.39-3.12-1.84c-0.2-0.09-0.38-0.15-0.56-0.21c-0.08-0.03-0.16-0.05-0.25-0.09l-0.15-0.05
		c-0.22-0.07-0.44-0.15-0.66-0.2l-0.75-0.19c-0.19-0.05-0.39-0.09-0.58-0.13c-0.08-0.02-0.16-0.03-0.27-0.05
		c-1.34-0.23-2.55-0.23-3.68-0.01c-0.69,0.14-1.34,0.36-1.93,0.67c-0.61,0.31-1.19,0.74-1.68,1.22c-0.86,0.86-1.48,1.94-1.87,3.23
		c-0.55,1.92-0.58,3.9-0.1,6.25c0.46,2.08,1.24,3.9,2.32,5.42c0.65,0.9,1.37,1.61,2.15,2.12c0.93,0.62,1.99,0.92,2.97,0.85
		c0.29-0.02,0.52-0.26,0.52-0.55c0.01-0.29-0.21-0.54-0.5-0.57c-0.9-0.1-1.58-0.6-1.99-0.99c-0.52-0.5-0.96-1.15-1.33-1.93
		c-0.64-1.37-1-3-1.05-4.72c-0.02-0.8,0.04-1.59,0.17-2.34c0.15-0.79,0.37-1.47,0.66-2.02c0.29-0.55,0.66-0.98,1.04-1.22
		c0.35-0.22,0.72-0.33,1.21-0.32c0.47,0.01,1.05,0.14,1.66,0.37c0.07,0.03,0.13,0.05,0.19,0.08c0.09,0.03,0.17,0.07,0.28,0.12
		l0.54,0.25c0.1,0.04,0.2,0.1,0.3,0.16l0.11,0.06c0.06,0.04,0.13,0.08,0.2,0.11c0.08,0.05,0.16,0.09,0.22,0.13
		c0.01,0.01,0.02,0.02,0.03,0.02c0.51,0.32,0.94,0.71,1.29,1.14c0.3,0.37,0.49,0.77,0.61,1.2c0.22,0.83,0.13,1.9-0.25,3.11
		c-0.18,0.57-0.43,1.18-0.76,1.83c-0.16,0.32-0.33,0.62-0.5,0.9c-0.09,0.14-0.18,0.28-0.26,0.41l-0.17,0.24
		c-0.04,0.04-0.07,0.09-0.1,0.14c-0.02,0.01-0.04,0.03-0.06,0.04c-0.23,0.2-0.26,0.54-0.07,0.78c5.52,6.83,9.73,13.79,12.51,20.69
		c3.09,7.64,4.45,15.63,3.93,23.13c-0.48,7.44-2.83,15.06-6.77,22.02c-1.88,3.32-4.1,6.52-6.6,9.53c-1.23,1.48-2.54,2.92-3.89,4.28
		c-0.69,0.69-1.38,1.36-2.06,1.98c-0.39,0.35-0.73,0.66-1.05,0.93l-0.52,0.44l-0.31,0.25c-0.05,0.04-0.1,0.08-0.13,0.1
		c-0.13,0.09-0.22,0.23-0.25,0.39c-0.02,0.16,0.02,0.32,0.12,0.45l5.11,6.13c0.1,0.12,0.24,0.19,0.39,0.2c0.01,0,0.03,0,0.04,0
		c0.14,0,0.27-0.05,0.37-0.14c0.13-0.12,0.21-0.19,0.3-0.28l1-0.98c0.36-0.36,0.74-0.76,1.16-1.2c0.72-0.78,1.46-1.6,2.18-2.46
		c1.39-1.65,2.73-3.39,3.98-5.16c2.52-3.58,4.71-7.36,6.5-11.22c1.86-4.03,3.27-8.15,4.2-12.27
		C273.79,141.06,274.25,136.74,274.18,132.54z"/>
	<path class="st1" d="M250.13,139.41c0.88,0,1.77-0.1,2.64-0.31c1.1-0.26,2.19-0.68,3.23-1.24c0.49-0.26,0.98-0.56,1.44-0.88
		c0.46-0.31,0.89-0.64,1.33-1c0.94-0.78,1.74-1.65,2.37-2.59c0.67-0.98,1.19-2.13,1.5-3.31c0.29-1.12,0.41-2.31,0.35-3.56
		c0,0,0,0,0,0c-0.1-2.05-0.66-4.16-1.7-6.45c-0.87-1.88-1.95-3.66-3.32-5.46L243.77,97.2c1.29-1.25,2.62-2.53,3.97-3.81
		c0.22-0.21,0.23-0.57,0.02-0.8l-0.34-0.37c-0.21-0.23-0.57-0.24-0.8-0.03c-1.27,1.18-2.6,2.41-3.94,3.67l-7.56-9.26
		c-0.09-0.11-0.21-0.18-0.34-0.2l-0.77-0.13c-0.81-0.14-1.52-0.24-2.12-0.32c-0.69-0.09-1.39-0.17-2.09-0.24
		c-1.41-0.14-2.83-0.24-4.22-0.28c-0.63-0.02-1.24-0.03-1.83-0.02l9.25-6.77c0,0,0,0,0,0c0.08,0.87,0.23,1.92,0.73,3.11
		c0.06,0.14,0.17,0.25,0.31,0.31c0.14,0.06,0.3,0.05,0.44-0.01l4.87-2.13c0.14-0.06,0.25-0.18,0.3-0.32
		c0.05-0.14,0.05-0.3-0.02-0.44c-0.09-0.2-0.21-0.63-0.27-1.15c-0.06-0.5-0.06-1.06-0.02-1.62c0.04-0.56,0.13-1.11,0.25-1.57
		c0.06-0.21,0.13-0.42,0.19-0.57c0.02-0.05,0.05-0.1,0.06-0.13c0.01-0.01,0.02-0.03,0.02-0.04l0.27-0.46
		c0.04-0.07,0.07-0.15,0.09-0.21c0.03-0.07,0.09-0.24,0.13-0.38c0.02-0.07,0.04-0.14,0.05-0.2c0.01-0.03,0.03-0.15,0.04-0.21
		c0.01-0.07,0.02-0.14,0.03-0.22c0.01-0.15,0.01-0.29,0.01-0.45c-0.02-0.28-0.07-0.57-0.16-0.83c-0.05-0.14-0.1-0.27-0.16-0.4
		c-0.08-0.17-0.18-0.33-0.29-0.48c-0.11-0.15-0.24-0.3-0.38-0.43c-0.12-0.12-0.28-0.25-0.4-0.32c-0.23-0.15-0.49-0.28-0.74-0.37
		c-0.13-0.05-0.28-0.09-0.33-0.1c-0.07-0.02-0.14-0.03-0.21-0.04c-0.14-0.02-0.29-0.04-0.43-0.04c-0.07,0-0.1,0-0.13,0
		c0,0-0.02,0-0.03,0l-0.1,0c-0.07,0-0.15,0.01-0.23,0.02L236.73,69c-0.08,0.01-0.16,0.03-0.25,0.05c-0.07,0.02-0.1,0.03-0.14,0.04
		l-0.17,0.05c-0.01,0-0.02,0.01-0.03,0.01l-0.21,0.08l-0.29,0.13c-0.16,0.08-0.29,0.15-0.41,0.21c-0.25,0.13-0.45,0.26-0.62,0.36
		c-0.39,0.24-0.74,0.48-1.03,0.67c-0.57,0.39-1.17,0.81-1.88,1.34c-1.11,0.81-2.28,1.7-3.59,2.72c-2.52,1.98-4.79,3.84-6.93,5.7
		c-0.93,0.81-2.15,1.89-3.38,3.08c-0.53,0.52-1.1,1.09-1.69,1.76c-0.31,0.36-0.59,0.69-0.91,1.18c-0.07,0.11-0.17,0.26-0.27,0.46
		c-0.1,0.19-0.21,0.41-0.32,0.76l-0.01,0.03c-0.03,0.08-0.05,0.16-0.08,0.3c-0.02,0.11-0.04,0.21-0.06,0.39
		c-0.01,0.08-0.01,0.16-0.01,0.25c0,0.09,0,0.22,0.01,0.33c0,0,0,0.03,0,0.03c0.01,0.09,0.02,0.18,0.05,0.32
		c0.03,0.14,0.07,0.27,0.11,0.41c0.11,0.31,0.27,0.61,0.46,0.85c0.1,0.13,0.21,0.25,0.33,0.37c0.1,0.1,0.21,0.18,0.33,0.27
		c0.06,0.04,0.12,0.08,0.2,0.13l0.14,0.07c0.1,0.05,0.2,0.1,0.31,0.14c0.19,0.07,0.35,0.12,0.49,0.15l0.51,0.12
		c0.09,0.02,0.18,0.02,0.27,0l0.52-0.13c1.03-0.27,2.21-0.46,3.52-0.58c1.17-0.1,2.41-0.15,3.77-0.14c1.26,0.01,2.56,0.06,3.85,0.16
		c0.64,0.05,1.29,0.11,1.93,0.17c0.32,0.03,0.67,0.04,0.91,0.05l6.86,8.06c-0.55,0.53-1.11,1.06-1.66,1.58
		c-0.38-0.22-0.77-0.42-1.15-0.59c-1.23-0.56-2.46-0.86-3.65-0.9c-1.31-0.04-2.67,0.28-3.82,0.9c-0.66,0.35-1.22,0.76-1.56,1.04
		c-0.5,0.39-0.93,0.78-1.34,1.18c-0.94,0.94-1.68,1.94-2.19,2.99c-0.58,1.16-0.9,2.45-0.93,3.75c-0.03,1.22,0.18,2.48,0.64,3.73
		c0.39,1.08,0.93,2.13,1.66,3.22c0.33,0.48,0.68,0.96,1.07,1.42c0.19,0.23,0.39,0.45,0.59,0.67c0.19,0.21,0.35,0.37,0.55,0.56
		l12.51,15.35c0.18,0.21,0.36,0.41,0.58,0.64c0.77,0.79,1.62,1.51,2.53,2.14c2.02,1.39,4.23,2.21,6.39,2.37
		C249.54,139.39,249.84,139.41,250.13,139.41z M254.41,117.39c1.17,1.47,2.14,2.99,2.89,4.53c0.84,1.74,1.31,3.36,1.41,4.83
		c0.06,0.81,0,1.58-0.17,2.28c-0.18,0.74-0.48,1.43-0.88,2.05c-0.4,0.62-0.92,1.22-1.55,1.76c-0.67,0.58-1.37,1.08-2.06,1.47
		c-1.47,0.84-3.03,1.24-4.54,1.15c-1.48-0.08-3.05-0.64-4.54-1.61c-0.71-0.47-1.38-1.01-1.99-1.61c-0.15-0.15-0.3-0.3-0.41-0.43
		l-12.91-15.2c-0.02-0.02-0.04-0.04-0.06-0.06l-0.05-0.05c-0.13-0.11-0.3-0.29-0.48-0.47c-0.16-0.17-0.33-0.35-0.49-0.53
		c-0.32-0.37-0.62-0.75-0.89-1.14c-0.59-0.83-1.04-1.66-1.35-2.47c-0.34-0.88-0.51-1.75-0.51-2.58c0.01-0.86,0.2-1.69,0.57-2.47
		c0.35-0.75,0.88-1.5,1.56-2.21c0.8-0.8,1.53-1.39,2.17-1.74c0.72-0.4,1.51-0.61,2.34-0.61c0.01,0,0.02,0,0.03,0
		c0.81,0.01,1.68,0.22,2.57,0.61c0.05,0.02,0.11,0.05,0.16,0.07c-1.01,0.99-1.82,1.8-2.65,2.65c-0.31,0.32-0.72,0.74-1.13,1.19
		c-0.19,0.21-0.37,0.42-0.56,0.64l-0.04,0.04c-0.17,0.21-0.35,0.42-0.53,0.71c-0.01,0.01-0.01,0.02-0.02,0.03l-0.02,0.03
		c-0.04,0.08-0.11,0.19-0.17,0.41c-0.01,0.04-0.02,0.08-0.03,0.16c0,0,0,0.03,0,0.03c0,0.05-0.01,0.11,0,0.21
		c0,0.04,0.02,0.16,0.07,0.27h0l0.03,0.07c0.03,0.06,0.05,0.1,0.08,0.17c0.08,0.15,0.16,0.27,0.24,0.4c0.15,0.24,0.3,0.47,0.46,0.7
		c0.3,0.45,0.61,0.9,0.92,1.35c2.68,3.82,5.21,7.23,7.72,10.41c0.56,0.7,1.3,1.63,2.09,2.53c0.35,0.4,0.73,0.83,1.16,1.25l0.05,0.05
		c0.2,0.19,0.41,0.39,0.73,0.61c0.01,0,0.02,0.01,0.03,0.02c0.09,0.06,0.21,0.13,0.41,0.21c0.13,0.04,0.3,0.09,0.57,0.08
		c0.08-0.01,0.16-0.02,0.25-0.04c0.09-0.03,0.18-0.06,0.27-0.11c0.01,0,0.02-0.01,0.02-0.01l0.08-0.05c0.17-0.11,0.3-0.21,0.43-0.31
		c0.86-0.69,1.61-1.41,2.48-2.28c0.91-0.93,1.63-1.72,2.24-2.5c0.4-0.51,0.72-0.96,1.03-1.51l0.02-0.04
		c0.15-0.29,0.31-0.61,0.39-1.11c0.02-0.17,0.02-0.35,0-0.55c-0.04-0.26-0.14-0.5-0.28-0.69c-0.05-0.06-0.09-0.14-0.14-0.23
		l-0.37-0.63c-0.43-0.72-0.87-1.47-1.31-2.19c-1.24-2.02-2.44-3.8-3.65-5.45c-1.51-2.03-2.87-3.64-4.3-5.06
		c-0.83-0.83-1.69-1.59-2.56-2.25c-0.1-0.08-0.2-0.15-0.3-0.22c0.42-0.41,0.84-0.83,1.26-1.24L254.41,117.39z M236.95,103.91
		c0.93,0.62,1.9,1.41,2.95,2.42c1.33,1.28,2.68,2.82,4.12,4.69c1.2,1.56,2.38,3.26,3.62,5.2c0.45,0.7,0.87,1.39,1.32,2.13l0.37,0.61
		l0.02,0.02c0.02,0.03,0.03,0.05,0.05,0.08c-0.02,0.05-0.05,0.11-0.08,0.17c-0.23,0.43-0.56,0.87-0.78,1.17
		c-0.55,0.71-1.2,1.45-2.04,2.32c-0.55,0.56-1.25,1.26-1.98,1.88c-0.02-0.02-0.03-0.03-0.05-0.05c-0.38-0.36-0.74-0.76-1.05-1.1
		c-0.77-0.85-1.5-1.74-2.05-2.42c-2.53-3.12-5.08-6.45-7.8-10.19c-0.31-0.43-0.62-0.87-0.92-1.3c-0.14-0.2-0.27-0.4-0.4-0.59
		c0.06-0.08,0.13-0.16,0.19-0.24c0.16-0.2,0.33-0.39,0.5-0.58c0.3-0.34,0.63-0.7,1.07-1.17
		C234.89,106.01,235.81,105.07,236.95,103.91z"/>
</g>
<g>
	<path class="st1" d="M314.87,99.03c-0.28,0.1-0.44,0.41-0.35,0.7c0.39,1.28,0.41,2.77,0.08,4.53c-0.27,1.39-0.74,2.86-1.43,4.48
		c-0.6,1.39-1.32,2.82-2.14,4.25c-0.39,0.68-0.81,1.36-1.24,2.03c-0.21,0.33-0.43,0.66-0.65,0.98l-0.7,1
		c-0.01,0.01-0.01,0.02-0.02,0.03l-1,1.64c-0.08,0.13-0.15,0.26-0.22,0.4c-0.03,0.06-0.06,0.12-0.1,0.19
		c-0.08,0.15-0.16,0.31-0.24,0.46c-0.31,0.59-0.64,1.2-0.91,1.82l-0.54,1.16c-0.11,0.26-0.22,0.52-0.32,0.78l-0.16,0.4
		c-0.05,0.13-0.11,0.27-0.16,0.4c-0.11,0.26-0.21,0.52-0.31,0.78l-0.43,1.18c-1.05,2.94-1.94,6.11-2.73,9.72
		c-1.29,5.92-2.19,12.41-2.74,19.83c-0.24,3.21-0.4,6.56-0.49,9.98c-0.04,1.82-0.06,3.46-0.06,5c0,0.84,0.01,1.67,0.02,2.51
		l0.02,1.26c0.01,0.43,0.02,0.84,0.04,1.31c0.01,0.15,0.08,0.3,0.19,0.4c0.1,0.09,0.24,0.14,0.37,0.14c0.02,0,0.03,0,0.05,0
		l7.95-0.72c0.15-0.01,0.29-0.09,0.39-0.21c0.1-0.12,0.14-0.27,0.12-0.43l-0.15-1.14l-0.14-1.18c-0.09-0.79-0.18-1.58-0.26-2.38
		c-0.15-1.48-0.29-3.04-0.43-4.78c-0.25-3.28-0.42-6.51-0.51-9.6c-0.19-7.14,0.03-13.4,0.68-19.16c0.4-3.46,0.93-6.52,1.63-9.36
		l0.29-1.16c0.06-0.24,0.13-0.48,0.21-0.72c0.04-0.14,0.08-0.27,0.12-0.4l0.12-0.41c0.07-0.24,0.14-0.48,0.21-0.71l0.39-1.14
		c0.18-0.57,0.4-1.11,0.64-1.68c0.07-0.17,0.13-0.33,0.2-0.49c0.03-0.07,0.06-0.14,0.08-0.21c0.04-0.11,0.08-0.21,0.13-0.32
		l0.74-1.57l0.59-1.07c0.2-0.37,0.4-0.74,0.59-1.12c0.38-0.75,0.75-1.52,1.09-2.27c0.72-1.59,1.32-3.18,1.8-4.71
		c0.56-1.82,0.9-3.44,1.04-4.98c0.17-2.03-0.04-3.71-0.63-5.14C315.47,99.06,315.15,98.93,314.87,99.03z"/>
	<path class="st1" d="M327.74,108.25c-1.08-1.64-2.18-3.39-2.92-5.09c-0.73-1.66-1.09-3.27-1.1-4.95c-0.01-0.34,0.02-0.69,0.04-1.06
		l0.02-0.23c0.04-0.41,0.11-0.88,0.2-1.44c0.06-0.33,0.12-0.67,0.18-1.02c0.14-0.76,0.29-1.55,0.4-2.41c0.09-0.71,0.14-1.36,0.16-2
		c0.01-0.55-0.01-1.37-0.16-2.21c-0.28-1.59-0.89-3.01-1.81-4.21c-0.54-0.7-1.17-1.27-1.86-1.71c-0.74-0.47-1.62-0.79-2.48-0.91
		c-0.76-0.1-1.57-0.07-2.39,0.09c-0.67,0.14-1.33,0.35-2.02,0.66c-0.68,0.31-1.26,0.65-1.76,1.01c-0.52,0.36-1.02,0.79-1.52,1.31
		c-0.42,0.43-0.82,0.93-1.25,1.57c-0.31,0.5-0.66,1.09-0.9,1.75c-0.08,0.17-0.13,0.35-0.17,0.48l-0.04,0.14
		c-0.04,0.11-0.07,0.22-0.11,0.35l-0.05,0.2c-0.06,0.24-0.12,0.49-0.15,0.75c-0.13,0.72-0.11,1.43-0.08,1.98
		c0.12,1.29,0.55,2.55,1.25,3.66c0.68,1.04,1.59,1.94,2.63,2.6c1.03,0.64,2.19,1.07,3.36,1.24l0.24-1.1
		c-0.96-0.29-1.87-0.79-2.64-1.44c-0.74-0.64-1.34-1.44-1.73-2.31c-0.38-0.86-0.55-1.78-0.49-2.66c0.05-0.5,0.12-0.92,0.25-1.31
		l0.01-0.04c0.03-0.13,0.09-0.27,0.15-0.42c0.03-0.07,0.06-0.14,0.07-0.18c0.03-0.06,0.06-0.12,0.08-0.17
		c0.02-0.04,0.05-0.09,0.07-0.14c0.05-0.1,0.09-0.18,0.14-0.25l0.02-0.03c0.86-1.49,2.38-2.65,4.07-3.12
		c0.79-0.22,1.58-0.26,2.06-0.09c0.22,0.07,0.4,0.18,0.57,0.34c0.18,0.16,0.33,0.38,0.47,0.63c0.29,0.55,0.46,1.26,0.46,1.95
		c0.01,0.62-0.13,1.42-0.41,2.38c-0.18,0.61-0.4,1.25-0.63,1.93c-0.12,0.35-0.24,0.7-0.37,1.07c-0.22,0.67-0.39,1.24-0.54,1.8
		l-0.03,0.11c-0.14,0.6-0.29,1.22-0.37,1.85c-0.21,1.36-0.27,2.74-0.18,4.11c0.08,1.28,0.31,2.63,0.67,4.01
		c0.67,2.54,1.67,4.81,2.64,6.92l0.25,0.55l8.05-4.45L327.74,108.25z"/>
	<path class="st1" d="M298.49,124.34l3.75-14.21c0.29-0.08,0.79-0.13,1.04-0.1l0.13,0.62c0.05,0.26,0.29,0.45,0.55,0.45l0.81,0
		c0.9,0,2.24-0.04,3.65-0.4c0.74-0.2,1.35-0.43,1.9-0.74c0.69-0.38,1.3-0.88,1.76-1.45c0.49-0.61,0.86-1.34,1.05-2.12
		c0.17-0.68,0.23-1.41,0.18-2.19c-0.05-0.65-0.16-1.3-0.35-1.98c-0.09-0.31-0.19-0.62-0.31-0.93c-0.06-0.15-0.12-0.3-0.19-0.46
		l-0.1-0.22c0,0-0.01-0.02-0.01-0.03c-0.04-0.08-0.07-0.14-0.12-0.25c-0.07-0.14-0.19-0.24-0.34-0.28c-0.15-0.04-0.3-0.03-0.44,0.05
		l-2.33,1.29c-0.14,0.08-0.25,0.2-0.28,0.36c-0.04,0.16-0.01,0.31,0.08,0.44c0.01,0.02,0.03,0.06,0.04,0.08l0.07,0.14
		c0.05,0.1,0.09,0.2,0.14,0.29c0.09,0.21,0.17,0.41,0.24,0.61c0.14,0.42,0.24,0.83,0.29,1.22c0.1,0.78-0.02,1.41-0.36,1.89
		c-0.33,0.47-0.98,0.88-1.83,1.15c-0.73,0.23-1.4,0.41-1.85,0.5c-0.13-0.15-0.29-0.33-0.44-0.43c-0.57-0.41-1.15-0.51-1.54-0.55
		c-0.16-0.01-0.36-0.01-0.59,0l2.51-9.75c0.07-0.29-0.09-0.59-0.37-0.68l-0.17-0.05c-0.29-0.09-0.59,0.05-0.7,0.33l-4.27,11.09
		c-0.2,0.12-0.35,0.22-0.6,0.42c-0.14,0.12-0.33,0.28-0.52,0.52c-0.15,0.2-0.37,0.51-0.46,0.97c-0.04,0.18-0.05,0.38-0.02,0.57
		l-0.1,0.08c-0.36,0.28-0.64,0.48-0.91,0.66c-0.65,0.42-1.23,0.67-1.75,0.73c-0.52,0.07-1.05-0.07-1.52-0.4
		c-0.46-0.32-0.92-0.82-1.36-1.49l-0.25-0.38c-0.15-0.23-0.44-0.32-0.69-0.21l-12.85,5.26c-0.27,0.11-0.42,0.42-0.32,0.7l0.05,0.15
		c0.13,0.38,0.34,0.87,0.77,1.3c0.26,0.26,0.6,0.43,0.94,0.47c0.34,0.04,0.7-0.06,1.01-0.26c0.22-0.14,0.4-0.31,0.54-0.45l0.13-0.13
		c0.1-0.1,0.2-0.2,0.3-0.28c0.07-0.06,0.1-0.06,0.14-0.06c0.12-0.01,0.26,0.01,0.42,0.04l0.15,0.02c0.16,0.02,0.32-0.03,0.44-0.13
		c0.12-0.1,0.19-0.25,0.2-0.42v0c0,0,0,0,0,0c0.05-0.05,0.12-0.1,0.2-0.13c0.08-0.04,0.16-0.06,0.22-0.07
		c0.22,0.13,0.5,0.09,0.69-0.09l0.09-0.09c0.11-0.11,0.17-0.25,0.16-0.41c0-0.15-0.07-0.3-0.18-0.4c-0.09-0.08-0.19-0.15-0.3-0.19
		c2.68-0.93,5.67-1.97,6.74-2.34c0.42,0.6,0.88,1.08,1.38,1.47c0.44,0.34,0.94,0.6,1.45,0.77c0.53,0.17,1.1,0.24,1.67,0.2
		c0.61-0.04,1.26-0.2,1.85-0.43l-3.46,9.04c-0.06,0.14-0.05,0.31,0.02,0.45c0.07,0.14,0.19,0.25,0.34,0.29l3.04,0.98
		c0.06,0.02,0.12,0.03,0.17,0.03c0.09,0,0.19-0.02,0.27-0.07C298.35,124.62,298.45,124.49,298.49,124.34z M280.5,115.79
		c0.23-0.08,0.5-0.17,0.81-0.28c-0.02,0.01-0.03,0.03-0.05,0.04l-0.12,0.11c-0.12,0.11-0.22,0.21-0.33,0.27
		c-0.06,0.04-0.11,0.04-0.1,0.04c-0.02,0-0.06-0.02-0.11-0.08C280.56,115.87,280.53,115.83,280.5,115.79z"/>
</g>
<g>
	<path class="st1" d="M381.73,151.38c-0.05-1.48-0.11-3.01-0.22-4.52c-0.02-0.33-0.04-0.66-0.06-0.99
		c-0.04-0.61-0.07-1.23-0.13-1.85l-0.26-2.82c-0.07-0.87-0.18-1.75-0.29-2.6l-0.4-3.1l-0.71-4.24l-0.9-4.21
		c-0.15-0.61-0.33-1.23-0.49-1.83c-0.09-0.32-0.17-0.63-0.26-0.95l-1.47-5.3c-0.86-3.68-1.42-7.29-1.68-10.71
		c-0.25-3.55-0.19-7.22,0.2-10.92c0.02-0.28,0.06-0.56,0.1-0.85c0.02-0.17,0.05-0.33,0.07-0.49c0.02-0.16,0.04-0.33,0.07-0.49
		c0.04-0.29,0.08-0.58,0.12-0.86c0.05-0.29,0.1-0.59,0.15-0.89c0.1-0.6,0.21-1.22,0.35-1.83c0.42-2.02,0.89-3.75,1.44-5.29
		c0.1-0.28-0.04-0.6-0.32-0.71c-0.28-0.12-0.6,0.01-0.73,0.28c-0.71,1.53-1.36,3.27-1.97,5.3c-0.2,0.62-0.37,1.26-0.53,1.87
		c-0.08,0.29-0.15,0.57-0.23,0.87c-0.07,0.3-0.14,0.6-0.21,0.9c-0.04,0.16-0.07,0.32-0.11,0.49c-0.03,0.16-0.07,0.32-0.11,0.48
		c-0.07,0.3-0.14,0.61-0.19,0.91c-0.74,3.78-1.15,7.59-1.22,11.31c-0.06,3.63,0.2,7.48,0.76,11.45l1.01,5.54
		c0.06,0.33,0.12,0.65,0.18,0.98c0.1,0.55,0.21,1.13,0.29,1.67l0.49,4.03l0.31,4.06l0.11,3.01c0.03,0.8,0.06,1.63,0.05,2.44
		l0.01,2.74c0,0.58-0.02,1.17-0.03,1.75c-0.01,0.33-0.02,0.65-0.03,0.98c-0.02,1.42-0.1,2.88-0.17,4.28
		c-0.02,0.39-0.04,0.78-0.06,1.17c-0.26,4.06-0.58,7.63-0.97,10.9c-0.24,2.03-0.47,3.8-0.71,5.42c-0.1,0.7-0.21,1.39-0.31,2.08
		l-0.09,0.6c-0.14,0.84-0.29,1.78-0.45,2.62c-0.03,0.15,0.01,0.31,0.1,0.43c0.09,0.13,0.23,0.21,0.38,0.23l7.9,1.13
		c0.03,0,0.05,0.01,0.08,0.01c0.13,0,0.25-0.04,0.35-0.12c0.12-0.1,0.2-0.24,0.21-0.39c0.09-0.97,0.16-1.85,0.23-2.78l0.05-0.74
		c0.05-0.75,0.1-1.49,0.13-2.24c0.09-1.71,0.17-3.57,0.23-5.69c0.1-3.44,0.1-7.16-0.01-11.38
		C381.76,152.16,381.75,151.77,381.73,151.38z"/>
	<path class="st1" d="M388.35,80.24c-0.34-1.33-0.95-2.57-1.77-3.59c-0.77-0.98-1.76-1.8-2.93-2.43l-0.37-0.21l-0.43-0.19
		c-0.08-0.03-0.15-0.07-0.23-0.1c-0.18-0.08-0.37-0.16-0.56-0.23l-0.74-0.25c-0.19-0.07-0.39-0.12-0.58-0.16
		c-0.08-0.02-0.16-0.04-0.23-0.06c-0.46-0.13-0.93-0.19-1.39-0.25l-0.27-0.04l-0.18-0.01c-0.52-0.03-1.05-0.05-1.59,0.01
		c-1.2,0.09-2.37,0.42-3.39,0.94c-0.98,0.49-1.88,1.2-2.67,2.09c-0.68,0.77-1.25,1.66-1.7,2.65c-0.42,0.92-0.72,1.88-0.9,2.86
		c-0.36,2.02-0.27,4.01,0.27,5.75c0.3,0.96,0.71,1.84,1.24,2.59c0.56,0.8,1.26,1.48,2.04,1.99l0.7-0.88
		c-1.06-1.01-1.73-2.47-1.9-4.12c-0.15-1.43,0.07-2.98,0.65-4.48c0.54-1.39,1.41-2.59,2.44-3.38c0.52-0.4,1.05-0.66,1.58-0.8
		c0.52-0.14,1.07-0.17,1.64-0.1l0.03,0c0.18,0.01,0.38,0.06,0.59,0.12c0.07,0.02,0.14,0.04,0.22,0.05c0.09,0.04,0.18,0.07,0.27,0.1
		c0.19,0.07,0.37,0.13,0.55,0.23c0.07,0.03,0.13,0.06,0.2,0.09c0.08,0.04,0.15,0.07,0.23,0.12l0.46,0.26
		c0.06,0.03,0.11,0.07,0.18,0.13c0.06,0.04,0.12,0.09,0.16,0.12l0.17,0.12l0.15,0.14c0.39,0.33,0.67,0.68,0.83,1.04
		c0.16,0.35,0.23,0.71,0.24,1.15c0.02,0.88-0.28,2.02-0.83,3.23c-0.27,0.58-0.59,1.18-0.97,1.78c-0.18,0.28-0.37,0.58-0.58,0.86
		c-0.1,0.14-0.2,0.28-0.3,0.4l-0.45,0.57l7.41,5.39l0.32-0.53c0.09-0.16,0.14-0.25,0.2-0.35l0.23-0.46
		c0.12-0.24,0.23-0.48,0.34-0.72c0.19-0.41,0.38-0.87,0.6-1.44c0.39-1.04,0.69-2.03,0.93-3.02c0.27-1.16,0.42-2.25,0.47-3.31
		C388.77,82.58,388.65,81.38,388.35,80.24z"/>
	<path class="st1" d="M345.43,88.46c0.53,0.53,1.28,0.85,1.99,0.85c0,0,0,0,0,0c0.35,0.01,0.7-0.05,1.04-0.16l14.93,18.65l3.29-2.88
		l-16.64-17.35c0.14-0.12,0.25-0.26,0.35-0.4c0.24-0.34,0.35-0.73,0.31-1.11c-0.04-0.35-0.2-0.68-0.5-1.02
		c-0.22-0.23-0.46-0.42-0.75-0.58c-0.52-0.28-1.12-0.43-1.74-0.43c-0.33-0.01-0.63,0.03-0.94,0.11c-0.14,0.04-0.33,0.1-0.55,0.22
		l-0.21,0.15c-0.04,0.03-0.08,0.07-0.13,0.1l-0.06,0.05c-0.41,0.35-0.9,0.85-1.11,1.61c-0.11,0.41-0.08,0.87,0.07,1.28
		C344.92,87.86,345.13,88.16,345.43,88.46z M348.84,85.69c0.35,0.17,0.58,0.37,0.62,0.55c0.01,0.07-0.01,0.17-0.07,0.27
		c-0.04,0.07-0.09,0.14-0.15,0.21l-0.42-0.44l-0.76,0.69c-0.02,0.02-0.08,0.06-0.14,0.1c-0.05,0.03-0.11,0.06-0.19,0.1
		c-0.12,0.05-0.25,0.09-0.37,0.1c-0.12,0.01-0.22,0-0.31-0.03l-0.06-0.02c-0.02-0.01-0.04-0.02-0.06-0.03
		c-0.03-0.01-0.05-0.03-0.08-0.04l-0.03-0.02c-0.05-0.03-0.1-0.06-0.13-0.09c-0.14-0.11-0.2-0.2-0.22-0.23
		c-0.03-0.06-0.04-0.11-0.02-0.18c0.03-0.21,0.21-0.5,0.49-0.77c0.16-0.16,0.19-0.18,0.3-0.22c0.15-0.05,0.33-0.09,0.51-0.1
		C348.16,85.51,348.53,85.56,348.84,85.69z"/>
	<path class="st1" d="M369.31,113.98l-8.96,1.97c-0.3-0.1-0.6-0.19-0.95-0.28c-0.7-0.19-1.44-0.36-2.26-0.5
		c-1.35-0.24-2.82-0.42-4.49-0.54c-1.47-0.11-2.93-0.17-4.47-0.18c-3.65-0.02-6.45,0.22-9.07,0.78c-1.84,0.4-3.3,0.91-4.6,1.59
		c-0.89,0.47-1.6,0.97-2.21,1.56c-0.39,0.38-0.71,0.76-0.98,1.16c-0.15,0.22-0.29,0.47-0.42,0.75c-0.06,0.13-0.12,0.27-0.17,0.42
		c-0.03,0.07-0.05,0.15-0.08,0.26l-0.02,0.08c-0.02,0.09-0.04,0.16-0.06,0.33l-0.02,0.17l3.96,54.33l26.67,0.89l5.36-46.3
		l-9.09-0.88l-3.1,39.83l-14.74,0.6l-4.61-44.37c0.53,0.33,1.14,0.61,1.91,0.86c1.52,0.48,3.08,0.7,4.27,0.84
		c1.29,0.15,2.65,0.24,4.28,0.29c1.42,0.05,2.86,0.06,4.27,0.03c1.52-0.02,2.92-0.1,4.3-0.24c1.61-0.16,3.02-0.39,4.3-0.69
		c0.25-0.06,0.5-0.12,0.73-0.19c0.11-0.03,0.23-0.06,0.34-0.09l0.03-0.01c0.1-0.03,0.2-0.06,0.29-0.09
		c0.25-0.08,0.51-0.16,0.76-0.26c0.83-0.31,1.5-0.64,2.11-1.02c0.67-0.43,1.21-0.89,1.63-1.4l0.74-1.2
		c0.06-0.14,0.11-0.28,0.16-0.43c0.07-0.23,0.12-0.49,0.16-0.78c0.01-0.12,0.02-0.25,0.01-0.4c0-0.07-0.01-0.14-0.01-0.24l0-0.02
		c0-0.04,0-0.09,0-0.11c0-0.09-0.01-0.18-0.01-0.27c-0.02-0.15-0.04-0.3-0.09-0.48c-0.07-0.27-0.19-0.54-0.33-0.8
		c-0.01-0.01-0.01-0.02-0.02-0.03l5.23-0.65L369.31,113.98z M344.29,120.49c0,0.02,0.01,0.1,0.01,0.17c0,0.06,0,0.13-0.01,0.21
		c-0.02,0.13-0.06,0.26-0.11,0.36c-0.06,0.11-0.12,0.19-0.19,0.24l-0.04,0.04c-0.02,0.01-0.04,0.02-0.05,0.03
		c-0.02,0.01-0.05,0.03-0.07,0.05l-0.03,0.01c-0.05,0.02-0.1,0.05-0.15,0.07c-0.17,0.06-0.27,0.07-0.31,0.06
		c-0.06-0.01-0.11-0.03-0.17-0.07c-0.16-0.14-0.31-0.44-0.4-0.82c-0.05-0.22-0.05-0.26-0.03-0.37c0.03-0.16,0.09-0.33,0.18-0.49
		c0.18-0.34,0.42-0.64,0.69-0.83c0.26-0.17,0.5-0.26,0.67-0.26c0.04,0,0.09,0.01,0.12,0.02c0.07,0.02,0.14,0.1,0.19,0.2
		c0.04,0.07,0.07,0.15,0.1,0.24l-0.59,0.13L344.29,120.49z M345.13,117.91c0.96-0.09,1.99-0.15,3.1-0.19
		c1.36-0.05,2.72-0.05,4.03-0.02l-6.43,1.41c-0.03-0.18-0.09-0.35-0.16-0.51C345.54,118.32,345.36,118.08,345.13,117.91z
		 M334.76,123.48l-0.17-1.68c0.02-0.04,0.04-0.08,0.07-0.13c0.09-0.16,0.23-0.34,0.4-0.52c0.32-0.34,0.76-0.68,1.31-0.99
		c0.94-0.55,2.12-1.01,3.58-1.39c0.8-0.21,1.64-0.38,2.54-0.53c-0.35,0.27-0.66,0.62-0.91,1.01c-0.18,0.28-0.3,0.56-0.4,0.86
		c-0.04,0.14-0.09,0.33-0.09,0.58l0.01,0.26c0,0.05,0.01,0.11,0.02,0.16l0.01,0.07c0.09,0.53,0.26,1.21,0.8,1.79
		c0.29,0.31,0.7,0.53,1.12,0.61c0.35,0.06,0.71,0.04,1.12-0.06c0.73-0.18,1.39-0.65,1.76-1.25c0.19-0.3,0.33-0.63,0.42-1
		c0-0.01,0.01-0.03,0.01-0.04l15.09-1.87c0.24,0.14,0.56,0.34,0.69,0.44c0.2,0.17,0.36,0.34,0.45,0.49c0.04,0.07,0.08,0.15,0.1,0.2
		c0.01,0.02,0.01,0.05,0.02,0.06l0,0.03l-0.04,0.03l0.06,0.33l0.01,0.05c0,0.03,0,0.07,0,0.11c-0.01,0.11-0.02,0.19-0.04,0.28
		c-0.05,0.19-0.14,0.39-0.27,0.59c-0.25,0.39-0.64,0.77-1.17,1.14c-0.45,0.31-0.99,0.6-1.66,0.88c-0.19,0.09-0.4,0.16-0.62,0.24
		c-0.09,0.03-0.19,0.07-0.28,0.1c-0.11,0.03-0.22,0.07-0.33,0.1c-0.21,0.07-0.41,0.13-0.62,0.19c-1.18,0.34-2.49,0.6-3.99,0.82
		c-1.29,0.18-2.68,0.32-4.13,0.4c-1.37,0.09-2.78,0.13-4.17,0.15c-1.56,0.01-2.92-0.02-4.16-0.11c-1.13-0.08-2.61-0.23-4.04-0.61
		c-0.74-0.2-1.3-0.44-1.77-0.72c-0.28-0.19-0.47-0.36-0.6-0.55c-0.05-0.08-0.09-0.16-0.11-0.24l-0.02-0.21
		c0-0.02,0.01-0.05,0.01-0.07L334.76,123.48z"/>
</g>
<path class="st2" d="M388.23,186.7c-0.19-0.37-0.39-0.64-0.61-0.83l-0.24-0.2h-11.28h-15.04H63.72h-0.44H37.41l-0.24,0.2
	c-0.22,0.18-0.42,0.46-0.61,0.83c-0.19,0.36-0.28,0.8-0.28,1.29c0,0.81,0.29,1.5,0.87,2.03c0.63,0.59,1.79,0.89,3.43,0.89h17.36h2.6
	h303.7h12.55h7.41c1.65,0,2.8-0.3,3.43-0.89c0.57-0.54,0.87-1.22,0.87-2.03C388.51,187.5,388.42,187.06,388.23,186.7z"/>
<g>
	<path class="st1" d="M48.98,214.33c0.96-2.79,2.27-5.07,3.94-6.85c1.67-1.77,3.62-3.08,5.84-3.91c2.22-0.84,4.59-1.25,7.12-1.25
		c2.61,0,5.04,0.42,7.3,1.25c2.26,0.84,4.22,2.14,5.87,3.91c1.65,1.77,2.94,4.05,3.88,6.85c0.94,2.79,1.41,6.14,1.41,10.05
		c0,3.95-0.48,7.31-1.44,10.08c-0.96,2.77-2.26,5.03-3.91,6.78c-1.65,1.75-3.6,3.04-5.84,3.85c-2.24,0.82-4.64,1.22-7.21,1.22
		c-2.57,0-4.97-0.42-7.21-1.25c-2.24-0.84-4.19-2.14-5.84-3.91c-1.65-1.77-2.95-4.04-3.91-6.81c-0.96-2.77-1.44-6.09-1.44-9.96
		C47.54,220.47,48.02,217.12,48.98,214.33z M57.26,231.16c0.53,1.79,1.24,3.25,2.14,4.37c0.9,1.12,1.92,1.94,3.06,2.44
		c1.14,0.51,2.3,0.76,3.48,0.76c1.34,0,2.59-0.24,3.73-0.73c1.14-0.49,2.13-1.28,2.96-2.38c0.84-1.1,1.49-2.55,1.96-4.34
		c0.47-1.79,0.7-4.01,0.7-6.66c0-2.65-0.25-4.89-0.76-6.72c-0.51-1.83-1.19-3.32-2.05-4.46c-0.86-1.14-1.85-1.97-2.99-2.48
		c-1.14-0.51-2.34-0.76-3.61-0.76c-1.22,0-2.39,0.25-3.51,0.76c-1.12,0.51-2.12,1.33-3,2.48c-0.88,1.14-1.58,2.63-2.11,4.46
		c-0.53,1.83-0.79,4.07-0.79,6.72C56.46,227.19,56.73,229.37,57.26,231.16z"/>
	<path class="st1" d="M112.85,203.57c1.57,0.43,2.97,1.14,4.22,2.14s2.25,2.29,3.03,3.88c0.77,1.59,1.16,3.54,1.16,5.87
		c0,1.55-0.23,2.96-0.7,4.25c-0.47,1.28-1.09,2.42-1.86,3.42s-1.68,1.86-2.72,2.6c-1.04,0.73-2.13,1.32-3.27,1.77
		c0.73,1.06,1.45,2.2,2.14,3.42s1.4,2.35,2.11,3.39c0.71,1.04,1.44,1.9,2.17,2.6c0.73,0.69,1.51,1.04,2.32,1.04h2.32
		c0.2,0.24,0.38,0.6,0.52,1.07c0.14,0.47,0.21,1.09,0.21,1.86c0,1.43-0.47,2.59-1.41,3.48c-0.94,0.9-2.44,1.34-4.52,1.34
		c-1.26,0-2.36-0.26-3.3-0.79c-0.94-0.53-1.77-1.23-2.51-2.11c-0.73-0.88-1.4-1.89-1.99-3.06c-0.59-1.16-1.19-2.38-1.8-3.67
		c-0.61-1.28-1.24-2.58-1.89-3.88s-1.41-2.55-2.26-3.73H99.8v16.38c-0.37,0.29-1.02,0.5-1.96,0.64c-0.94,0.14-1.81,0.21-2.63,0.21
		c-0.57,0-1.13-0.04-1.68-0.12s-1.03-0.26-1.44-0.55c-0.41-0.29-0.73-0.7-0.98-1.25c-0.24-0.55-0.37-1.27-0.37-2.17V203.6
		c0.45-0.24,1.07-0.42,1.86-0.52c0.79-0.1,1.68-0.15,2.66-0.15h12.84C109.7,202.93,111.28,203.14,112.85,203.57z M99.8,221.57h6.23
		c2.08,0,3.71-0.52,4.89-1.56c1.18-1.04,1.77-2.52,1.77-4.43c0-1.75-0.58-3.12-1.74-4.1c-1.16-0.98-2.52-1.47-4.06-1.47H99.8V221.57
		z"/>
	<path class="st1" d="M160.82,235.35c0.79,0.59,1.19,1.54,1.19,2.84c0,1.1-0.24,2.02-0.73,2.75c-0.49,0.73-1.28,1.49-2.38,2.26
		c-0.37,0.24-0.89,0.55-1.56,0.92c-0.67,0.37-1.49,0.71-2.44,1.04c-0.96,0.33-2.08,0.6-3.36,0.83c-1.28,0.22-2.74,0.34-4.37,0.34
		c-2.65,0-5.1-0.42-7.36-1.25c-2.26-0.84-4.24-2.14-5.93-3.91c-1.69-1.77-3.02-4.04-3.97-6.81c-0.96-2.77-1.44-6.09-1.44-9.96
		c0-3.91,0.47-7.26,1.41-10.05c0.94-2.79,2.22-5.07,3.85-6.85c1.63-1.77,3.57-3.08,5.81-3.91c2.24-0.84,4.65-1.25,7.21-1.25
		c1.79,0,3.3,0.07,4.52,0.21c1.22,0.14,2.27,0.36,3.15,0.64c0.88,0.29,1.63,0.61,2.26,0.98c0.63,0.37,1.27,0.75,1.93,1.16
		c0.81,0.57,1.46,1.21,1.93,1.93c0.47,0.71,0.7,1.62,0.7,2.72c0,1.14-0.24,2.09-0.73,2.84c-0.49,0.75-1.08,1.36-1.77,1.8
		c-1.22-0.94-2.82-1.79-4.8-2.57c-1.98-0.77-4.23-1.16-6.75-1.16c-1.26,0-2.49,0.22-3.67,0.67c-1.18,0.45-2.22,1.2-3.12,2.26
		c-0.9,1.06-1.62,2.47-2.17,4.22c-0.55,1.75-0.83,3.95-0.83,6.6c0,2.57,0.28,4.72,0.83,6.45c0.55,1.73,1.3,3.12,2.26,4.16
		c0.96,1.04,2.06,1.78,3.3,2.23c1.24,0.45,2.54,0.67,3.88,0.67c2.2,0,4.26-0.36,6.17-1.07c1.92-0.71,3.48-1.58,4.71-2.6
		C159.27,234.47,160.03,234.76,160.82,235.35z"/>
	<path class="st1" d="M199.66,203.6c0.82,0.45,1.22,1.26,1.22,2.44v38.87c-0.16,0.12-0.41,0.22-0.73,0.31
		c-0.33,0.08-0.69,0.16-1.1,0.24c-0.41,0.08-0.82,0.14-1.25,0.18c-0.43,0.04-0.83,0.06-1.19,0.06c-0.65,0-1.26-0.05-1.83-0.15
		c-0.57-0.1-1.08-0.3-1.53-0.58c-0.45-0.29-0.8-0.7-1.07-1.25c-0.26-0.55-0.4-1.27-0.4-2.17v-13.87h-15.52v17.05
		c-0.29,0.29-0.96,0.52-2.02,0.7c-1.06,0.18-2.12,0.28-3.18,0.28c-0.49,0-0.96-0.05-1.41-0.15c-0.45-0.1-0.86-0.3-1.22-0.58
		c-0.37-0.29-0.66-0.7-0.89-1.25c-0.22-0.55-0.34-1.27-0.34-2.17v-37.83c0.49-0.24,1.2-0.44,2.14-0.58
		c0.94-0.14,1.87-0.21,2.81-0.21c1.14,0,2.11,0.22,2.9,0.67c0.79,0.45,1.19,1.26,1.19,2.44v13.39h15.52v-15.71
		c0.45-0.2,1.14-0.39,2.08-0.55c0.94-0.16,1.87-0.24,2.81-0.24C197.85,202.93,198.85,203.15,199.66,203.6z"/>
	<path class="st1" d="M218.79,237.28h19.5c0.2,0.33,0.42,0.78,0.64,1.38s0.34,1.33,0.34,2.23c0,1.39-0.23,2.54-0.7,3.45
		c-0.47,0.92-1.15,1.38-2.05,1.38H213.6c-0.49,0-0.96-0.04-1.41-0.12s-0.86-0.26-1.22-0.55c-0.37-0.29-0.66-0.7-0.89-1.25
		c-0.22-0.55-0.34-1.27-0.34-2.17v-37.89c0.41-0.24,0.93-0.44,1.56-0.58c0.63-0.14,1.52-0.21,2.66-0.21h24.33
		c0.2,0.33,0.42,0.78,0.64,1.38c0.22,0.59,0.34,1.33,0.34,2.23c0,1.39-0.23,2.54-0.7,3.45c-0.47,0.92-1.15,1.38-2.05,1.38h-17.72
		v8.5h16.5c0.2,0.33,0.42,0.86,0.64,1.59c0.22,0.73,0.34,1.55,0.34,2.44c0,1.39-0.22,2.45-0.67,3.21c-0.45,0.75-1.06,1.13-1.83,1.13
		h-14.97V237.28z"/>
	<path class="st1" d="M263.1,202.59c1.26,0.18,2.35,0.44,3.27,0.76c0.92,0.33,1.69,0.69,2.32,1.1c0.63,0.41,1.19,0.86,1.68,1.34
		c0.57,0.57,0.98,1.2,1.22,1.89c0.24,0.69,0.37,1.39,0.37,2.08c0,0.82-0.16,1.57-0.49,2.26c-0.33,0.69-0.71,1.37-1.16,2.02
		c-1.22-0.65-2.79-1.2-4.71-1.65c-1.92-0.45-4.24-0.67-6.97-0.67c-1.83,0-3.28,0.31-4.34,0.92c-1.06,0.61-1.59,1.55-1.59,2.81
		c0,0.49,0.1,0.97,0.31,1.44c0.2,0.47,0.57,0.92,1.1,1.34s1.26,0.82,2.2,1.19c0.94,0.37,2.14,0.71,3.61,1.04
		c2.36,0.49,4.4,1.05,6.11,1.68c1.71,0.63,3.14,1.43,4.28,2.38c1.14,0.96,1.99,2.13,2.54,3.51c0.55,1.39,0.85,3.1,0.89,5.13
		c0.04,1.87-0.22,3.61-0.79,5.2c-0.57,1.59-1.47,2.97-2.69,4.16c-1.22,1.18-2.79,2.11-4.71,2.78c-1.92,0.67-4.22,1.01-6.91,1.01
		c-3.34,0-6.07-0.26-8.19-0.79c-2.12-0.53-3.79-1.26-5.01-2.2c-0.86-0.65-1.44-1.33-1.74-2.05c-0.31-0.71-0.46-1.54-0.46-2.48
		c0-0.86,0.12-1.69,0.37-2.51c0.24-0.81,0.51-1.45,0.79-1.89c1.75,0.9,3.85,1.62,6.3,2.17c2.45,0.55,4.99,0.82,7.64,0.82
		c1.26,0,2.3-0.11,3.12-0.34s1.46-0.52,1.93-0.89c0.47-0.37,0.79-0.77,0.98-1.22c0.18-0.45,0.28-0.88,0.28-1.28
		c0-0.53-0.09-1.03-0.28-1.5c-0.18-0.47-0.54-0.9-1.07-1.28c-0.53-0.39-1.27-0.73-2.23-1.04c-0.96-0.31-2.23-0.6-3.82-0.89
		c-2.4-0.41-4.46-0.96-6.17-1.65c-1.71-0.69-3.12-1.58-4.22-2.66c-1.1-1.08-1.9-2.38-2.41-3.91c-0.51-1.53-0.76-3.33-0.76-5.41
		c0-3.95,1.28-7.11,3.85-9.47c2.57-2.36,6.25-3.55,11.06-3.55C260.33,202.32,261.84,202.41,263.1,202.59z"/>
	<path class="st1" d="M297.27,244.98c-0.94,0.49-2.61,0.73-5.01,0.73c-1.06,0-1.96-0.29-2.69-0.86c-0.73-0.57-1.1-1.65-1.1-3.24
		v-30.25h-11.55c-0.29-0.57-0.52-1.22-0.7-1.96c-0.18-0.73-0.27-1.51-0.27-2.32c0-1.06,0.29-2.02,0.86-2.87
		c0.57-0.86,1.63-1.28,3.18-1.28h28.79c0.2,0.33,0.42,0.78,0.64,1.38c0.22,0.59,0.34,1.33,0.34,2.23c0,1.39-0.23,2.54-0.7,3.45
		c-0.47,0.92-1.15,1.38-2.05,1.38h-9.72V244.98z"/>
	<path class="st1" d="M336.42,203.57c1.57,0.43,2.97,1.14,4.22,2.14s2.25,2.29,3.03,3.88c0.77,1.59,1.16,3.54,1.16,5.87
		c0,1.55-0.23,2.96-0.7,4.25c-0.47,1.28-1.09,2.42-1.86,3.42s-1.68,1.86-2.72,2.6c-1.04,0.73-2.13,1.32-3.27,1.77
		c0.73,1.06,1.45,2.2,2.14,3.42s1.4,2.35,2.11,3.39c0.71,1.04,1.44,1.9,2.17,2.6c0.73,0.69,1.51,1.04,2.32,1.04h2.32
		c0.2,0.24,0.38,0.6,0.52,1.07c0.14,0.47,0.21,1.09,0.21,1.86c0,1.43-0.47,2.59-1.41,3.48c-0.94,0.9-2.44,1.34-4.52,1.34
		c-1.26,0-2.36-0.26-3.3-0.79c-0.94-0.53-1.77-1.23-2.51-2.11c-0.73-0.88-1.4-1.89-1.99-3.06c-0.59-1.16-1.19-2.38-1.8-3.67
		c-0.61-1.28-1.24-2.58-1.89-3.88c-0.65-1.3-1.41-2.55-2.26-3.73h-5.01v16.38c-0.37,0.29-1.02,0.5-1.96,0.64
		c-0.94,0.14-1.81,0.21-2.63,0.21c-0.57,0-1.13-0.04-1.68-0.12c-0.55-0.08-1.03-0.26-1.44-0.55c-0.41-0.29-0.73-0.7-0.98-1.25
		c-0.24-0.55-0.37-1.27-0.37-2.17V203.6c0.45-0.24,1.07-0.42,1.86-0.52c0.79-0.1,1.68-0.15,2.66-0.15h12.84
		C333.27,202.93,334.85,203.14,336.42,203.57z M323.37,221.57h6.23c2.08,0,3.71-0.52,4.89-1.56c1.18-1.04,1.77-2.52,1.77-4.43
		c0-1.75-0.58-3.12-1.74-4.1c-1.16-0.98-2.52-1.47-4.06-1.47h-7.09V221.57z"/>
	<path class="st1" d="M363.52,237.28h19.5c0.2,0.33,0.42,0.78,0.64,1.38c0.22,0.59,0.34,1.33,0.34,2.23c0,1.39-0.23,2.54-0.7,3.45
		c-0.47,0.92-1.15,1.38-2.05,1.38h-22.92c-0.49,0-0.96-0.04-1.41-0.12c-0.45-0.08-0.86-0.26-1.22-0.55
		c-0.37-0.29-0.66-0.7-0.89-1.25c-0.22-0.55-0.34-1.27-0.34-2.17v-37.89c0.41-0.24,0.93-0.44,1.56-0.58
		c0.63-0.14,1.52-0.21,2.66-0.21h24.33c0.2,0.33,0.42,0.78,0.64,1.38c0.22,0.59,0.34,1.33,0.34,2.23c0,1.39-0.23,2.54-0.7,3.45
		c-0.47,0.92-1.15,1.38-2.05,1.38h-17.72v8.5h16.5c0.2,0.33,0.42,0.86,0.64,1.59c0.22,0.73,0.34,1.55,0.34,2.44
		c0,1.39-0.22,2.45-0.67,3.21c-0.45,0.75-1.06,1.13-1.83,1.13h-14.97V237.28z"/>
</g>
<g>
	<path class="st2" d="M80.09,306.18c-0.65-0.18-1.2-0.5-1.65-0.95l14.24-40.16c0.65-0.37,1.34-0.69,2.08-0.98
		c0.73-0.29,1.81-0.43,3.24-0.43c1.3,0,2.33,0.27,3.09,0.82c0.75,0.55,1.29,1.27,1.62,2.17l14.24,37.89
		c-0.45,0.82-1.12,1.33-2.02,1.56c-0.9,0.22-1.75,0.34-2.57,0.34c-1.22,0-2.29-0.26-3.21-0.79s-1.6-1.51-2.05-2.93l-1.65-4.46H89.68
		l-1.71,5.2c-0.37,1.14-0.94,1.93-1.71,2.35c-0.77,0.43-1.92,0.64-3.42,0.64C81.66,306.46,80.74,306.37,80.09,306.18z M103.8,260.86
		c-0.61,0.49-1.34,0.73-2.2,0.73c-0.82,0-1.71-0.29-2.69-0.86c-0.98-0.57-1.97-1.25-2.96-2.05c-1-0.79-1.98-1.6-2.93-2.41
		c-0.96-0.82-1.82-1.47-2.6-1.96c0.08-0.94,0.4-1.74,0.95-2.41c0.55-0.67,1.52-1.01,2.9-1.01c0.86,0,1.82,0.39,2.9,1.16
		c1.08,0.77,2.13,1.64,3.15,2.6c1.02,0.96,1.96,1.85,2.81,2.69c0.86,0.84,1.47,1.33,1.83,1.5
		C104.8,259.7,104.41,260.37,103.8,260.86z M102.64,290.75l-5.44-14.61l-4.95,14.61H102.64z"/>
	<path class="st2" d="M137.93,263.83c0.55,0.1,1.05,0.26,1.5,0.49c0.45,0.22,0.82,0.53,1.1,0.92c0.29,0.39,0.43,0.89,0.43,1.5v31.29
		h17.11c0.2,0.33,0.42,0.78,0.64,1.38c0.22,0.59,0.34,1.33,0.34,2.23c0,1.39-0.32,2.54-0.95,3.45c-0.63,0.92-1.86,1.38-3.7,1.38
		h-18.64c-1.18,0-2.12-0.3-2.81-0.89c-0.69-0.59-1.04-1.6-1.04-3.03v-38.14c0.45-0.2,1.06-0.38,1.83-0.52
		c0.77-0.14,1.65-0.21,2.63-0.21C136.87,263.67,137.38,263.73,137.93,263.83z"/>
	<path class="st2" d="M162.44,271.38c-0.63-0.73-0.95-1.83-0.95-3.3c0-1.47,0.35-2.57,1.04-3.3c0.69-0.73,1.81-1.1,3.36-1.1
		c1.47,0,2.62,0.46,3.45,1.38c0.84,0.92,1.25,2.54,1.25,4.86c0,3.5-0.47,6.03-1.41,7.58c-0.94,1.55-2.04,2.32-3.3,2.32
		c-0.9,0-1.54-0.13-1.93-0.4s-0.62-0.7-0.7-1.31c0.41-0.2,0.75-0.56,1.04-1.07s0.53-1.06,0.73-1.65c0.2-0.59,0.36-1.15,0.46-1.68
		c0.1-0.53,0.15-0.94,0.15-1.22C164.14,272.48,163.07,272.11,162.44,271.38z"/>
	<path class="st2" d="M186.06,298.02h19.5c0.2,0.33,0.42,0.78,0.64,1.38c0.22,0.59,0.34,1.33,0.34,2.23c0,1.39-0.23,2.54-0.7,3.45
		c-0.47,0.92-1.15,1.38-2.05,1.38h-22.92c-0.49,0-0.96-0.04-1.41-0.12c-0.45-0.08-0.86-0.26-1.22-0.55
		c-0.37-0.29-0.66-0.7-0.89-1.25c-0.22-0.55-0.34-1.27-0.34-2.17v-37.89c0.41-0.24,0.93-0.44,1.56-0.58
		c0.63-0.14,1.52-0.21,2.66-0.21h24.33c0.2,0.33,0.42,0.78,0.64,1.38c0.22,0.59,0.34,1.33,0.34,2.23c0,1.39-0.23,2.54-0.7,3.45
		c-0.47,0.92-1.15,1.38-2.05,1.38h-17.72v8.5h16.5c0.2,0.33,0.42,0.86,0.64,1.59c0.22,0.73,0.34,1.55,0.34,2.44
		c0,1.39-0.22,2.45-0.67,3.21c-0.45,0.75-1.06,1.13-1.83,1.13h-14.97V298.02z M186,257.17c0.86-0.84,1.79-1.73,2.81-2.69
		c1.02-0.96,2.07-1.82,3.15-2.6c1.08-0.77,2.05-1.16,2.9-1.16c1.39,0,2.35,0.34,2.9,1.01c0.55,0.67,0.87,1.48,0.95,2.41
		c-0.77,0.49-1.64,1.14-2.6,1.96c-0.96,0.81-1.94,1.62-2.93,2.41s-1.99,1.48-2.96,2.05c-0.98,0.57-1.87,0.86-2.69,0.86
		c-0.86,0-1.59-0.24-2.2-0.73c-0.61-0.49-1-1.16-1.16-2.02C184.54,258.5,185.15,258,186,257.17z"/>
	<path class="st2" d="M242.87,296.1c0.79,0.59,1.19,1.54,1.19,2.84c0,1.1-0.24,2.02-0.73,2.75c-0.49,0.73-1.28,1.49-2.38,2.26
		c-0.37,0.24-0.89,0.55-1.56,0.92s-1.49,0.71-2.44,1.04c-0.96,0.33-2.08,0.6-3.36,0.83c-1.28,0.22-2.74,0.34-4.37,0.34
		c-2.65,0-5.1-0.42-7.36-1.25c-2.26-0.84-4.24-2.14-5.93-3.91c-1.69-1.77-3.02-4.04-3.97-6.81c-0.96-2.77-1.44-6.09-1.44-9.96
		c0-3.91,0.47-7.26,1.41-10.05c0.94-2.79,2.22-5.07,3.85-6.85c1.63-1.77,3.57-3.08,5.81-3.91c2.24-0.84,4.65-1.25,7.21-1.25
		c1.79,0,3.3,0.07,4.52,0.21c1.22,0.14,2.27,0.36,3.15,0.64c0.88,0.29,1.63,0.61,2.26,0.98c0.63,0.37,1.27,0.75,1.93,1.16
		c0.81,0.57,1.46,1.21,1.93,1.93c0.47,0.71,0.7,1.62,0.7,2.72c0,1.14-0.24,2.09-0.73,2.84c-0.49,0.75-1.08,1.36-1.77,1.8
		c-1.22-0.94-2.82-1.79-4.8-2.57c-1.98-0.77-4.23-1.16-6.75-1.16c-1.26,0-2.49,0.22-3.67,0.67c-1.18,0.45-2.22,1.2-3.12,2.26
		c-0.9,1.06-1.62,2.47-2.17,4.22c-0.55,1.75-0.83,3.95-0.83,6.6c0,2.57,0.28,4.72,0.83,6.45c0.55,1.73,1.3,3.12,2.26,4.16
		c0.96,1.04,2.06,1.78,3.3,2.23s2.54,0.67,3.88,0.67c2.2,0,4.26-0.36,6.17-1.07c1.92-0.71,3.48-1.58,4.71-2.6
		C241.32,295.21,242.08,295.51,242.87,296.1z"/>
	<path class="st2" d="M248.25,275.07c0.96-2.79,2.27-5.07,3.94-6.85s3.62-3.08,5.84-3.91c2.22-0.84,4.59-1.25,7.12-1.25
		c2.61,0,5.04,0.42,7.3,1.25c2.26,0.84,4.22,2.14,5.87,3.91s2.94,4.05,3.88,6.85c0.94,2.79,1.41,6.14,1.41,10.05
		c0,3.95-0.48,7.31-1.44,10.08c-0.96,2.77-2.26,5.03-3.91,6.78s-3.6,3.04-5.84,3.85c-2.24,0.82-4.64,1.22-7.21,1.22
		c-2.57,0-4.97-0.42-7.21-1.25c-2.24-0.84-4.19-2.14-5.84-3.91c-1.65-1.77-2.95-4.04-3.91-6.81c-0.96-2.77-1.44-6.09-1.44-9.96
		C246.82,281.22,247.29,277.86,248.25,275.07z M256.53,291.91c0.53,1.79,1.24,3.25,2.14,4.37s1.92,1.94,3.06,2.44
		c1.14,0.51,2.3,0.76,3.48,0.76c1.34,0,2.59-0.24,3.73-0.73c1.14-0.49,2.13-1.28,2.96-2.38c0.84-1.1,1.49-2.55,1.96-4.34
		c0.47-1.79,0.7-4.01,0.7-6.66c0-2.65-0.25-4.89-0.76-6.72c-0.51-1.83-1.19-3.32-2.05-4.46c-0.86-1.14-1.85-1.97-2.99-2.48
		c-1.14-0.51-2.34-0.76-3.61-0.76c-1.22,0-2.39,0.25-3.51,0.76c-1.12,0.51-2.12,1.33-3,2.48s-1.58,2.63-2.11,4.46
		c-0.53,1.83-0.79,4.07-0.79,6.72C255.74,287.94,256,290.12,256.53,291.91z"/>
	<path class="st2" d="M296.05,263.83c0.55,0.1,1.05,0.26,1.5,0.49c0.45,0.22,0.82,0.53,1.1,0.92c0.29,0.39,0.43,0.89,0.43,1.5v31.29
		h17.11c0.2,0.33,0.42,0.78,0.64,1.38c0.22,0.59,0.34,1.33,0.34,2.23c0,1.39-0.32,2.54-0.95,3.45c-0.63,0.92-1.86,1.38-3.7,1.38
		h-18.64c-1.18,0-2.12-0.3-2.81-0.89c-0.69-0.59-1.04-1.6-1.04-3.03v-38.14c0.45-0.2,1.06-0.38,1.83-0.52
		c0.77-0.14,1.65-0.21,2.63-0.21C294.98,263.67,295.5,263.73,296.05,263.83z"/>
	<path class="st2" d="M331.1,298.02h19.5c0.2,0.33,0.42,0.78,0.64,1.38c0.22,0.59,0.34,1.33,0.34,2.23c0,1.39-0.23,2.54-0.7,3.45
		c-0.47,0.92-1.15,1.38-2.05,1.38H325.9c-0.49,0-0.96-0.04-1.41-0.12c-0.45-0.08-0.86-0.26-1.22-0.55c-0.37-0.29-0.66-0.7-0.89-1.25
		c-0.22-0.55-0.34-1.27-0.34-2.17v-37.89c0.41-0.24,0.93-0.44,1.56-0.58c0.63-0.14,1.52-0.21,2.66-0.21h24.33
		c0.2,0.33,0.42,0.78,0.64,1.38c0.22,0.59,0.34,1.33,0.34,2.23c0,1.39-0.23,2.54-0.7,3.45c-0.47,0.92-1.15,1.38-2.05,1.38H331.1v8.5
		h16.5c0.2,0.33,0.42,0.86,0.64,1.59c0.22,0.73,0.34,1.55,0.34,2.44c0,1.39-0.22,2.45-0.67,3.21c-0.45,0.75-1.06,1.13-1.83,1.13
		H331.1V298.02z"/>
</g>
</svg>
